<?xml version="1.0" standalone="no"?>
<!DOCTYPE svg PUBLIC "-//W3C//DTD SVG 20010904//EN"
 "http://www.w3.org/TR/2001/REC-SVG-20010904/DTD/svg10.dtd">
<svg version="1.0" xmlns="http://www.w3.org/2000/svg"
 width="640.000000pt" height="480.000000pt" viewBox="0 0 640.000000 480.000000"
 preserveAspectRatio="xMidYMid meet">

<g transform="translate(0.000000,480.000000) scale(0.100000,-0.100000)"
fill="#000000" stroke="none">
<path d="M0 4240 l0 -560 3200 0 3200 0 0 560 0 560 -3200 0 -3200 0 0 -560z"/>
<path d="M5630 3585 c0 -8 -7 -15 -15 -15 -8 0 -15 -7 -15 -15 0 -8 5 -15 12
-15 6 0 9 3 5 6 -3 3 6 17 20 30 20 18 22 24 9 24 -9 0 -16 -7 -16 -15z"/>
<path d="M5660 3570 c0 -6 5 -10 11 -10 8 0 7 -5 -1 -15 -11 -13 -10 -14 4 -9
20 8 21 30 1 38 -8 3 -15 1 -15 -4z"/>
<path d="M5630 3526 c0 -8 -10 -16 -21 -18 -12 -2 -27 -12 -33 -23 -6 -11 -19
-32 -28 -46 -17 -26 -17 -26 6 -22 19 4 24 0 28 -21 3 -14 1 -26 -5 -26 -6 0
-7 -3 -4 -6 4 -4 14 -1 24 7 15 12 16 12 11 -2 -5 -13 -2 -16 12 -12 17 5 16
7 -8 28 -15 13 -24 27 -19 31 4 4 16 -2 27 -14 12 -12 23 -22 25 -22 2 0 13
10 25 22 11 12 23 18 27 14 5 -4 -4 -18 -19 -31 -24 -21 -25 -23 -8 -28 13 -3
17 0 13 9 -3 8 0 14 6 14 6 0 11 -4 11 -10 0 -5 5 -10 11 -10 8 0 8 4 0 13
-15 19 10 53 33 44 15 -6 15 -5 0 18 -9 14 -21 25 -28 24 -7 0 -6 -2 2 -6 33
-13 3 -23 -73 -23 -50 0 -85 4 -85 10 0 6 4 10 9 10 5 0 11 10 13 23 2 16 11
23 31 25 19 2 27 9 27 23 0 10 -2 19 -5 19 -3 0 -5 -6 -5 -14z"/>
<path d="M5660 3510 c0 -6 9 -10 20 -10 10 0 24 -8 29 -17 6 -10 11 -13 11 -7
0 6 -6 16 -12 21 -21 16 -48 23 -48 13z"/>
<path d="M5596 3464 c-4 -11 6 -14 49 -14 43 0 53 3 49 14 -4 9 -21 14 -49 14
-28 0 -45 -5 -49 -14z"/>
<path d="M5004 3451 c-91 -56 -47 -201 61 -201 52 0 105 46 104 90 -1 23 -2
22 -10 -6 -12 -42 -40 -65 -87 -71 -33 -4 -44 -1 -72 24 -27 24 -33 37 -34 72
-1 36 4 47 32 72 55 50 128 34 158 -35 10 -23 13 -26 13 -11 0 39 -56 85 -104
85 -16 0 -44 -9 -61 -19z"/>
<path d="M5031 3358 c1 -35 4 -51 6 -35 6 36 40 38 49 2 3 -14 10 -25 16 -25
5 0 6 6 2 12 -5 7 -8 33 -9 58 0 43 -1 45 -32 48 l-33 3 1 -63z m56 36 c6 -16
-12 -34 -34 -34 -7 0 -13 11 -13 25 0 18 5 25 20 25 11 0 23 -7 27 -16z"/>
<path d="M5460 3393 c-17 -22 -25 -25 -65 -21 -43 5 -47 4 -73 -33 -22 -31
-34 -39 -67 -42 l-40 -4 41 -1 c37 -2 44 2 68 37 26 37 29 38 72 33 37 -4 49
-1 70 19 24 22 25 22 42 5 16 -18 16 -18 0 -13 -13 4 -15 2 -11 -10 5 -12 2
-15 -8 -11 -8 3 -23 0 -34 -8 -10 -8 -14 -14 -9 -14 6 0 16 6 23 13 11 10 13
9 8 -6 -8 -22 11 -13 31 15 11 15 17 16 27 8 11 -10 12 -7 3 12 -7 14 -22 29
-35 35 -20 10 -26 7 -43 -14z"/>
<path d="M5779 3406 c-8 -6 -20 -23 -28 -36 -13 -23 -13 -24 2 -12 27 23 40 3
15 -23 -12 -13 -25 -20 -28 -15 -3 4 -12 1 -20 -8 -13 -14 -12 -15 3 -9 9 3
17 2 17 -3 0 -6 5 -10 12 -10 6 0 8 3 5 7 -4 4 4 19 19 34 16 17 22 29 15 33
-14 9 -14 36 0 36 6 0 13 -9 16 -19 4 -15 12 -19 39 -16 19 1 37 -2 40 -7 3
-5 15 -6 25 -3 25 8 69 -36 69 -67 0 -20 1 -20 18 -5 24 22 33 12 21 -22 -8
-23 -8 -24 5 -8 20 26 26 21 26 -23 0 -22 -4 -40 -10 -40 -5 0 -10 -6 -10 -14
0 -8 -10 -22 -21 -30 l-22 -15 27 -7 c15 -3 32 -2 37 3 7 7 1 9 -18 6 -24 -4
-26 -3 -12 9 25 20 39 54 39 90 -1 40 -31 81 -54 72 -11 -4 -16 -1 -16 10 0 9
-6 16 -14 16 -8 0 -18 9 -21 21 -6 16 -13 20 -36 17 -16 -3 -29 -2 -29 2 0 4
-14 7 -32 7 -19 0 -37 7 -48 20 -13 16 -19 18 -31 9z"/>
<path d="M5360 3333 c0 -8 -7 -16 -15 -19 -8 -4 -15 -11 -15 -17 0 -6 10 -1
23 10 12 12 33 23 47 25 23 3 22 4 -7 9 -24 4 -33 2 -33 -8z"/>
<path d="M5878 3333 c7 -3 16 -2 19 1 4 3 -2 6 -13 5 -11 0 -14 -3 -6 -6z"/>
<path d="M5605 3320 c-4 -6 -1 -9 7 -8 7 2 12 -3 10 -10 -1 -8 2 -11 8 -7 8 5
7 11 -1 21 -14 17 -16 17 -24 4z"/>
<path d="M5661 3316 c-9 -11 -9 -16 1 -22 7 -4 10 -4 6 1 -4 4 -3 14 3 22 6 7
9 13 6 13 -2 0 -10 -6 -16 -14z"/>
<path d="M5812 3318 c-14 -14 -16 -38 -2 -38 5 0 6 7 3 17 -4 10 -2 14 5 9 6
-3 13 -2 16 3 9 15 -9 22 -22 9z"/>
<path d="M5450 3308 c0 -11 8 -18 20 -18 11 0 20 5 20 11 0 5 -5 7 -11 3 -6
-3 -15 0 -20 7 -7 11 -9 10 -9 -3z"/>
<path d="M5518 3310 c24 -10 29 -38 10 -60 -11 -12 -10 -12 5 -1 30 23 15 72
-22 70 -10 0 -7 -4 7 -9z"/>
<path d="M5405 3300 c-19 -8 -19 -9 3 -9 12 -1 22 4 22 9 0 6 -1 10 -2 9 -2 0
-12 -4 -23 -9z"/>
<path d="M5946 3293 c-6 -14 -5 -15 5 -6 7 7 10 15 7 18 -3 3 -9 -2 -12 -12z"/>
<path d="M5883 3283 c0 -7 6 -13 14 -13 7 0 13 6 13 13 0 8 -6 14 -13 14 -8 0
-14 -6 -14 -14z"/>
<path d="M5360 3280 c-8 -5 -12 -12 -9 -15 4 -3 12 1 19 10 14 17 11 19 -10 5z"/>
<path d="M5310 3273 c0 -5 4 -14 9 -22 7 -11 4 -18 -12 -26 -30 -15 -31 -70
-2 -71 15 -1 16 0 3 3 -29 7 -23 52 8 63 34 13 36 13 29 -9 -7 -22 10 -37 21
-20 4 8 3 9 -4 5 -7 -4 -12 -3 -12 3 0 5 4 11 9 13 5 2 -4 18 -20 36 -16 18
-29 29 -29 25z"/>
<path d="M5745 3271 c-3 -5 -1 -12 5 -16 5 -3 10 1 10 9 0 18 -6 21 -15 7z"/>
<path d="M5776 3271 c-4 -5 -3 -16 0 -25 5 -12 -1 -16 -22 -17 -21 0 -14 -4
26 -15 53 -14 128 -52 163 -82 15 -14 17 -13 17 0 0 9 11 19 25 22 18 5 23 11
17 24 -6 16 -7 16 -10 0 -4 -22 -21 -23 -28 -3 -4 8 -10 15 -15 15 -5 0 -9 -7
-9 -15 0 -19 -4 -19 -46 1 -19 9 -34 22 -34 28 0 7 -13 25 -30 41 -30 29 -43
30 -14 1 14 -15 14 -16 -4 -16 -20 0 -36 25 -26 41 3 5 3 9 0 9 -3 0 -7 -4
-10 -9z m74 -60 c0 -5 -9 -7 -20 -4 -11 3 -20 7 -20 9 0 2 9 4 20 4 11 0 20
-4 20 -9z m110 -51 c0 -5 -5 -10 -11 -10 -5 0 -7 5 -4 10 3 6 8 10 11 10 2 0
4 -4 4 -10z"/>
<path d="M5280 3260 c0 -5 -12 -10 -27 -11 -25 -1 -26 -2 -6 -7 17 -5 20 -11
13 -22 -5 -8 -9 -24 -9 -35 1 -16 2 -14 9 6 4 14 15 38 25 52 10 16 13 27 6
27 -6 0 -11 -4 -11 -10z"/>
<path d="M5418 3263 c7 -3 16 -2 19 1 4 3 -2 6 -13 5 -11 0 -14 -3 -6 -6z"/>
<path d="M5460 3257 c0 -7 -17 -21 -37 -30 -24 -10 -44 -29 -53 -49 -8 -17
-36 -46 -62 -64 -26 -17 -44 -35 -40 -39 4 -4 -2 -5 -12 -3 -10 1 -21 -3 -23
-10 -8 -20 28 -2 77 41 60 52 118 85 188 108 54 17 55 18 20 17 -21 -1 -38 -4
-38 -8 0 -4 -9 -10 -20 -13 -11 -3 -20 -1 -20 4 0 5 7 9 15 9 8 0 15 9 15 19
0 11 6 22 13 24 7 3 5 6 -5 6 -10 1 -18 -5 -18 -12z m-30 -50 c0 -8 -11 -19
-25 -25 -20 -9 -23 -9 -18 3 3 8 12 15 20 15 8 0 11 5 8 10 -3 6 -1 10 4 10 6
0 11 -6 11 -13z"/>
<path d="M5635 3260 c4 -6 11 -8 16 -5 14 9 11 15 -7 15 -8 0 -12 -5 -9 -10z"/>
<path d="M5379 3243 c-13 -16 -12 -17 4 -4 9 7 17 15 17 17 0 8 -8 3 -21 -13z"/>
<path d="M5585 3240 c-16 -7 -11 -9 20 -9 29 -1 36 2 25 9 -17 11 -19 11 -45
0z"/>
<path d="M5655 3240 c-4 -6 9 -10 31 -10 42 0 42 4 2 14 -15 3 -30 2 -33 -4z"/>
<path d="M4683 3216 c-216 -53 -353 -233 -353 -466 0 -223 118 -383 325 -441
100 -28 368 -11 381 25 6 18 -21 151 -32 151 -5 -1 -42 -7 -83 -14 -173 -31
-312 36 -357 172 -23 69 -16 217 13 272 25 47 74 96 123 121 49 25 191 31 259
11 28 -8 53 -12 55 -8 8 14 38 152 34 156 -2 2 -30 11 -63 20 -71 18 -228 19
-302 1z"/>
<path d="M3482 2888 c3 -319 4 -335 26 -389 32 -81 88 -140 164 -174 56 -26
75 -29 163 -29 129 -1 198 20 266 82 28 25 59 63 71 86 43 85 48 125 48 449
l0 307 -99 0 -100 0 -3 -312 c-3 -297 -4 -315 -25 -360 -28 -62 -70 -88 -142
-88 -70 0 -112 26 -143 88 -22 46 -23 56 -26 360 l-4 312 -99 0 -100 0 3 -332z"/>
<path d="M5871 3207 c2 -1 11 -8 20 -15 13 -9 16 -9 16 3 0 8 -9 15 -20 15
-11 0 -18 -1 -16 -3z"/>
<path d="M5741 3180 c0 -8 4 -24 9 -35 5 -13 9 -14 9 -5 0 8 -4 24 -9 35 -5
13 -9 14 -9 5z"/>
<path d="M5683 3172 c-9 -5 -6 -12 10 -21 19 -13 21 -12 10 1 -7 8 -10 18 -6
21 9 9 1 8 -14 -1z"/>
<path d="M5486 3157 c3 -10 9 -15 12 -12 3 3 0 11 -7 18 -10 9 -11 8 -5 -6z"/>
<path d="M5791 3143 c-10 -26 -10 -27 4 -9 8 11 15 23 15 28 0 15 -7 8 -19
-19z"/>
<path d="M5269 3147 c12 -15 11 -17 -6 -17 -10 0 -24 5 -30 11 -17 17 -26 -8
-11 -30 9 -12 19 -17 27 -12 9 6 7 10 -8 14 -12 3 -21 10 -21 16 0 8 6 8 19
-1 13 -8 26 -9 40 -2 l21 9 -22 14 c-21 13 -22 13 -9 -2z"/>
<path d="M5843 3138 c-15 -20 -25 -38 -20 -38 3 0 12 11 21 25 17 26 16 35 -1
13z"/>
<path d="M5875 3115 c0 -13 3 -21 8 -18 4 2 7 10 7 18 0 8 -3 16 -7 18 -5 3
-8 -5 -8 -18z"/>
<path d="M6067 3125 c-4 -8 -14 -15 -24 -15 -15 0 -15 -2 -3 -9 10 -7 18 -4
28 10 8 11 12 22 9 25 -2 3 -7 -2 -10 -11z"/>
<path d="M5408 3123 c7 -3 16 -2 19 1 4 3 -2 6 -13 5 -11 0 -14 -3 -6 -6z"/>
<path d="M5448 3113 c7 -3 16 -2 19 1 4 3 -2 6 -13 5 -11 0 -14 -3 -6 -6z"/>
<path d="M5994 3092 c29 -31 70 -50 63 -29 -2 7 -12 11 -22 9 -9 -2 -15 0 -12
5 3 5 -9 17 -26 27 l-32 18 29 -30z"/>
<path d="M5360 3106 c0 -2 8 -10 18 -17 15 -13 16 -12 3 4 -13 16 -21 21 -21
13z"/>
<path d="M5545 3096 c-95 -30 -188 -105 -229 -184 -27 -52 -18 -50 13 3 54 95
160 167 264 181 l47 7 0 -263 c0 -234 -2 -261 -15 -250 -9 7 -18 10 -22 6 -3
-3 -1 -6 5 -6 7 0 12 -4 12 -10 0 -5 -6 -10 -12 -10 -7 0 -30 -16 -51 -35 -43
-40 -51 -43 -44 -16 6 26 -10 51 -35 51 l-22 0 23 21 c13 12 19 24 13 28 -5 3
-12 13 -15 21 -2 8 -3 3 -1 -12 2 -17 -2 -31 -13 -36 -20 -12 -9 -32 18 -32
17 0 24 -10 20 -32 -3 -21 22 -108 35 -119 11 -9 16 -5 28 22 7 19 16 46 20
62 6 27 6 27 -13 10 -39 -35 -51 -44 -51 -35 0 17 74 88 98 94 22 6 22 5 22
-87 l0 -94 -37 -4 c-21 -2 -2 -4 42 -4 44 0 63 2 43 4 l-38 4 0 359 0 359 33
4 c17 2 3 4 -33 5 -36 0 -83 -5 -105 -12z m25 -624 c0 -5 -3 -12 -7 -16 -5 -4
-8 -13 -8 -18 0 -6 -6 -13 -12 -15 -16 -6 -17 12 -1 37 13 20 28 27 28 12z"/>
<path d="M5751 3085 c127 -46 206 -127 245 -250 7 -22 13 -31 13 -20 1 35 -56
142 -99 185 -40 40 -150 101 -180 99 -8 0 1 -6 21 -14z"/>
<path d="M5206 3073 c-4 -9 0 -23 7 -31 12 -12 9 -23 -19 -80 -19 -37 -34 -74
-33 -82 0 -8 9 7 20 34 11 28 34 70 51 95 16 25 24 40 15 33 -18 -15 -41 7
-31 32 3 9 4 16 1 16 -3 0 -8 -8 -11 -17z"/>
<path d="M5923 3063 c-1 -24 -1 -25 7 -8 11 26 12 35 2 35 -4 0 -8 -12 -9 -27z"/>
<path d="M6074 3076 c9 -28 -12 -50 -33 -34 -13 10 -13 9 1 -8 10 -11 31 -47
48 -79 17 -33 28 -49 25 -35 -4 14 -18 43 -31 66 -21 37 -21 42 -7 56 12 13
13 20 3 34 -11 18 -11 18 -6 0z"/>
<path d="M5347 3059 c12 -12 24 -21 27 -18 2 2 -8 13 -22 23 l-27 19 22 -24z"/>
<path d="M5520 3061 c0 -5 9 -7 20 -4 17 5 20 0 20 -31 0 -33 2 -36 29 -36 23
0 31 -5 34 -22 4 -20 4 -19 6 5 1 24 -3 27 -29 27 -28 0 -30 3 -30 35 0 31 -3
35 -25 35 -14 0 -25 -4 -25 -9z"/>
<path d="M5961 3030 c-13 -11 -19 -20 -14 -20 6 0 18 9 28 20 23 25 17 25 -14
0z"/>
<path d="M5782 3028 c-7 -7 -12 -25 -12 -40 0 -15 -9 -37 -20 -48 -11 -11 -15
-20 -9 -20 5 0 8 -4 5 -9 -3 -5 -15 -7 -25 -4 -23 6 -38 -14 -22 -30 9 -9 11
-8 6 6 -8 19 10 24 21 6 12 -20 -14 -35 -37 -20 -17 10 -20 10 -17 0 2 -7 16
-16 30 -20 24 -6 27 -3 49 53 23 59 41 76 47 47 4 -20 -88 -180 -99 -173 -5 3
-9 2 -9 -3 0 -4 47 -6 105 -5 73 3 110 0 120 -8 12 -10 15 -9 15 6 0 11 -5 26
-11 34 -8 12 -9 9 -4 -10 6 -24 5 -24 -9 -6 -9 11 -16 14 -16 8 0 -7 -4 -12
-10 -12 -5 0 -10 9 -10 21 0 13 4 18 12 13 11 -7 -43 95 -65 124 -8 10 -7 16
4 23 21 13 26 11 33 -16 4 -14 11 -25 16 -25 5 0 2 12 -6 28 -7 15 -14 36 -14
48 0 24 -18 44 -40 44 -9 0 -21 -5 -28 -12z m53 -28 c0 -18 -6 -26 -23 -28
-13 -2 -25 3 -28 12 -10 26 4 48 28 44 17 -2 23 -10 23 -28z m-7 -98 c2 -7 -6
-12 -17 -12 -21 0 -27 11 -14 24 9 9 26 2 31 -12z m20 -34 c18 -18 16 -88 -3
-88 -11 0 -16 12 -17 43 l-1 42 -4 -42 c-2 -24 -8 -43 -14 -43 -5 0 -10 19
-11 43 l-1 42 -4 -42 c-4 -40 -6 -43 -34 -43 -31 0 -37 11 -16 32 7 7 18 25
24 41 10 20 20 27 41 27 15 0 33 -5 40 -12z"/>
<path d="M5805 3000 c-3 -5 -1 -10 4 -10 6 0 11 5 11 10 0 6 -2 10 -4 10 -3 0
-8 -4 -11 -10z"/>
<path d="M5986 2994 c-11 -8 -16 -14 -10 -14 13 0 39 18 34 24 -3 2 -14 -2
-24 -10z"/>
<path d="M5285 2990 c27 -12 43 -12 25 0 -8 5 -22 9 -30 9 -10 0 -8 -3 5 -9z"/>
<path d="M5460 2975 c0 -23 -4 -25 -43 -25 -42 0 -67 -13 -67 -34 0 -6 5 -3
11 7 7 12 23 17 54 17 43 0 67 -13 43 -23 -7 -3 -3 -6 10 -6 12 -1 22 -7 22
-15 0 -17 -27 -46 -43 -46 -8 0 -8 -3 -2 -8 16 -11 17 -40 1 -44 -10 -2 -6 -9
12 -23 15 -10 22 -13 16 -5 -16 19 -10 67 10 89 20 21 21 57 3 64 -8 3 -14 19
-15 35 0 26 4 31 26 35 24 4 24 4 -5 6 -29 1 -33 -2 -33 -24z"/>
<path d="M5564 2855 c0 -55 1 -76 3 -47 2 29 2 74 0 100 -2 26 -3 2 -3 -53z"/>
<path d="M5260 2930 c8 -5 20 -10 25 -10 6 0 3 5 -5 10 -8 5 -19 10 -25 10 -5
0 -3 -5 5 -10z"/>
<path d="M6026 2931 c-4 -5 3 -7 14 -4 23 6 26 13 6 13 -8 0 -17 -4 -20 -9z"/>
<path d="M5677 2923 c-4 -3 -7 -13 -7 -22 0 -13 2 -13 13 1 6 9 19 18 27 21
10 4 8 6 -6 6 -11 1 -24 -2 -27 -6z"/>
<path d="M5907 2923 c46 -9 55 -68 9 -61 -24 3 -29 29 -7 36 10 3 12 0 8 -12
-4 -11 -3 -15 4 -11 18 12 3 30 -24 30 -31 1 -31 2 -6 -50 11 -22 17 -32 15
-22 -4 12 0 17 14 17 11 0 24 9 30 20 16 30 -4 60 -38 59 -22 -1 -23 -2 -5 -6z"/>
<path d="M5377 2913 c-14 -13 -6 -41 16 -56 12 -8 19 -18 15 -22 -4 -4 -18 4
-32 18 -14 15 -26 22 -26 17 0 -5 14 -19 30 -32 32 -23 38 -46 18 -66 -9 -9
-9 -12 -1 -12 7 0 15 10 19 23 4 12 12 25 18 29 7 5 3 8 -8 8 -15 0 -17 3 -9
11 9 9 6 17 -13 31 -33 27 -30 46 9 51 l32 4 -31 1 c-17 1 -34 -1 -37 -5z"/>
<path d="M6126 2865 c4 -16 10 -68 15 -115 l8 -85 -4 90 c-1 50 -8 101 -14
115 -11 24 -11 24 -5 -5z"/>
<path d="M5217 2858 c2 -5 10 -8 18 -8 8 0 16 3 18 8 3 4 -5 7 -18 7 -13 0
-21 -3 -18 -7z"/>
<path d="M5152 2840 c0 -14 2 -19 5 -12 2 6 2 18 0 25 -3 6 -5 1 -5 -13z"/>
<path d="M5285 2830 c-4 -17 -5 -34 -2 -36 2 -3 7 10 11 27 8 42 0 50 -9 9z"/>
<path d="M6063 2838 c-13 -6 -23 -15 -23 -20 0 -5 11 -1 25 8 37 24 35 30 -2
12z"/>
<path d="M5706 2815 c-9 -26 -7 -32 5 -12 6 10 9 21 6 23 -2 3 -7 -2 -11 -11z"/>
<path d="M5228 2813 c7 -3 16 -2 19 1 4 3 -2 6 -13 5 -11 0 -14 -3 -6 -6z"/>
<path d="M5143 2740 c0 -41 2 -58 4 -37 2 20 2 54 0 75 -2 20 -4 3 -4 -38z"/>
<path d="M6008 2762 c-2 -15 -1 -38 3 -52 5 -18 7 -10 8 28 1 56 -4 69 -11 24z"/>
<path d="M6063 2773 c9 -2 25 -2 35 0 9 3 1 5 -18 5 -19 0 -27 -2 -17 -5z"/>
<path d="M5193 2763 c9 -2 25 -2 35 0 9 3 1 5 -18 5 -19 0 -27 -2 -17 -5z"/>
<path d="M5271 2740 c0 -29 1 -32 10 -17 7 11 7 23 0 35 -9 14 -10 11 -10 -18z"/>
<path d="M5782 2705 c-12 -14 -18 -25 -12 -25 5 0 14 9 20 21 7 12 18 18 26
15 9 -3 12 -1 9 4 -10 16 -20 12 -43 -15z"/>
<path d="M6057 2723 c-3 -5 8 -8 23 -8 15 0 26 3 23 8 -2 4 -13 7 -23 7 -10 0
-21 -3 -23 -7z"/>
<path d="M5193 2713 c9 -2 25 -2 35 0 9 3 1 5 -18 5 -19 0 -27 -2 -17 -5z"/>
<path d="M5353 2708 c-13 -6 -23 -15 -23 -21 0 -5 6 -4 14 2 8 7 27 16 43 21
19 6 22 8 8 8 -11 1 -30 -4 -42 -10z"/>
<path d="M5445 2710 c-4 -6 -11 -7 -17 -4 -7 4 -8 2 -4 -4 5 -8 -1 -12 -16
-12 -13 0 -29 -5 -36 -12 -14 -14 -16 -54 -4 -62 5 -3 8 5 7 17 -3 34 4 45 31
45 14 0 23 -3 20 -6 -3 -2 -1 -13 4 -22 7 -13 5 -21 -5 -30 -12 -10 -15 -9
-16 6 0 18 -1 18 -8 -1 -5 -11 -5 -22 -1 -25 4 -3 10 -12 13 -20 4 -10 6 -9 6
6 1 12 7 27 15 34 8 6 12 18 9 26 -3 7 0 27 5 44 11 30 9 40 -3 20z"/>
<path d="M5827 2689 c7 -7 15 -10 18 -7 3 3 -2 9 -12 12 -14 6 -15 5 -6 -5z"/>
<path d="M5281 2670 c-1 -33 40 -120 80 -170 30 -38 115 -100 135 -100 5 0 -7
10 -26 21 -19 12 -48 33 -63 48 l-28 26 23 5 c15 4 23 14 24 28 1 19 1 19 -3
2 -2 -11 -11 -20 -19 -20 -12 0 -15 9 -13 34 2 19 0 38 -4 42 -4 4 -7 -14 -7
-40 0 -29 -4 -45 -10 -41 -18 11 -64 98 -76 144 -9 31 -13 38 -13 21z"/>
<path d="M5708 2678 c6 -6 18 -8 28 -6 14 3 12 5 -9 10 -19 3 -25 2 -19 -4z"/>
<path d="M5885 2679 c-16 -7 -13 -8 13 -4 17 2 32 0 32 -5 0 -6 -24 -11 -52
-12 -51 -1 -51 -2 -10 -5 24 -3 40 -8 36 -14 -3 -5 0 -8 8 -7 13 3 26 24 27
46 1 14 -25 15 -54 1z"/>
<path d="M6057 2678 c2 -5 13 -8 23 -8 10 0 21 3 23 8 3 4 -8 7 -23 7 -15 0
-26 -3 -23 -7z"/>
<path d="M5998 2655 c-4 -16 -9 -39 -12 -50 -4 -11 1 -5 9 14 9 18 14 41 13
50 -2 9 -7 3 -10 -14z"/>
<path d="M5203 2663 c9 -2 23 -2 30 0 6 3 -1 5 -18 5 -16 0 -22 -2 -12 -5z"/>
<path d="M5317 2648 c7 -27 32 -58 47 -58 6 0 0 7 -12 16 -12 8 -22 26 -22 40
0 13 -4 24 -9 24 -5 0 -7 -10 -4 -22z"/>
<path d="M5511 2661 c-8 -5 -9 -11 -3 -15 5 -3 12 1 16 9 6 17 6 18 -13 6z"/>
<path d="M5566 2655 c4 -8 10 -12 15 -9 11 6 2 24 -11 24 -5 0 -7 -7 -4 -15z"/>
<path d="M5687 2654 c3 -7 20 -10 48 -7 36 5 44 2 48 -13 4 -16 5 -16 6 3 1
19 -5 22 -53 25 -37 2 -52 -1 -49 -8z"/>
<path d="M5152 2640 c0 -14 2 -19 5 -12 2 6 2 18 0 25 -3 6 -5 1 -5 -13z"/>
<path d="M6123 2614 c-6 -27 -10 -51 -8 -52 6 -6 27 78 23 90 -2 6 -9 -11 -15
-38z"/>
<path d="M5608 2628 c-10 -10 -14 -18 -9 -18 10 0 36 29 30 34 -2 1 -12 -6
-21 -16z"/>
<path d="M6068 2633 c7 -3 16 -2 19 1 4 3 -2 6 -13 5 -11 0 -14 -3 -6 -6z"/>
<path d="M5232 2595 c-17 -37 -14 -45 4 -12 9 16 14 31 11 33 -2 2 -9 -7 -15
-21z"/>
<path d="M5882 2591 c-7 -21 -7 -31 0 -33 7 -3 4 -17 -7 -38 -23 -46 -22 -45
-40 -30 -8 7 -15 8 -15 2 0 -9 22 -22 39 -22 5 0 18 23 29 50 12 29 16 50 10
50 -6 0 -8 10 -4 25 9 35 0 31 -12 -4z"/>
<path d="M5923 2605 c-10 -11 -9 -13 6 -12 11 1 17 7 14 14 -6 16 -5 16 -20
-2z"/>
<path d="M5165 2585 c12 -54 72 -150 132 -207 51 -48 147 -109 170 -108 4 1
-17 14 -47 29 -106 55 -189 146 -238 261 -13 30 -20 42 -17 25z"/>
<path d="M5665 2600 c-3 -5 -1 -10 4 -10 6 0 11 5 11 10 0 6 -2 10 -4 10 -3 0
-8 -4 -11 -10z"/>
<path d="M5715 2599 c-5 -8 -4 -10 3 -5 13 8 17 -6 5 -18 -4 -3 -8 -12 -9 -19
-1 -7 -5 -20 -9 -29 -4 -11 -3 -18 4 -18 6 0 10 3 10 8 -3 18 3 31 27 57 14
15 19 25 11 22 -8 -3 -19 -1 -25 5 -6 6 -12 6 -17 -3z"/>
<path d="M5781 2594 c0 -11 3 -14 6 -6 3 7 2 16 -1 19 -3 4 -6 -2 -5 -13z"/>
<path d="M5822 2557 c1 -44 2 -46 5 -14 3 29 8 37 19 33 19 -7 18 -4 -6 17
-20 17 -20 16 -18 -36z"/>
<path d="M5500 2586 c0 -2 6 -9 14 -15 10 -9 15 -8 20 4 4 10 -1 15 -14 15
-11 0 -20 -2 -20 -4z"/>
<path d="M5556 2578 c4 -6 -1 -17 -11 -25 -11 -7 -14 -13 -9 -13 6 0 21 11 34
25 l23 25 -22 0 c-14 0 -20 -4 -15 -12z"/>
<path d="M6030 2580 c8 -5 20 -10 25 -10 6 0 3 5 -5 10 -8 5 -19 10 -25 10 -5
0 -3 -5 5 -10z"/>
<path d="M5930 2570 c-9 -6 -10 -10 -3 -10 6 0 15 5 18 10 8 12 4 12 -15 0z"/>
<path d="M5959 2554 c-24 -46 -126 -131 -181 -153 -29 -11 -46 -20 -37 -20 22
-1 127 54 158 82 28 27 85 107 79 113 -3 2 -11 -8 -19 -22z"/>
<path d="M5790 2537 c0 -32 -2 -33 -32 -30 l-33 3 29 -10 c16 -5 33 -15 37
-22 5 -8 9 8 9 40 0 28 -2 52 -5 52 -3 0 -5 -15 -5 -33z"/>
<path d="M6026 2536 c10 -8 21 -12 24 -10 5 6 -21 24 -34 24 -6 0 -1 -6 10
-14z"/>
<path d="M6081 2504 c-57 -107 -170 -198 -294 -235 -56 -18 -85 -20 -165 -16
-53 3 -108 8 -122 11 -14 3 -7 -1 15 -8 55 -20 199 -20 266 0 86 25 164 72
222 133 50 53 114 147 105 156 -2 2 -14 -16 -27 -41z"/>
<path d="M5245 2529 c-4 -6 -5 -12 -2 -15 2 -3 7 2 10 11 7 17 1 20 -8 4z"/>
<path d="M5280 2490 c-9 -6 -10 -10 -3 -10 6 0 15 5 18 10 8 12 4 12 -15 0z"/>
<path d="M5320 2449 c-22 -18 -22 -19 -3 -10 12 6 25 16 28 21 9 15 3 12 -25
-11z"/>
<path d="M5402 2379 c-19 -30 -11 -32 11 -3 10 13 14 24 10 24 -5 0 -14 -9
-21 -21z"/>
<path d="M5520 2390 c8 -5 22 -9 30 -9 10 0 8 3 -5 9 -27 12 -43 12 -25 0z"/>
<path d="M5871 2381 c9 -14 22 -27 30 -29 12 -3 12 -2 0 6 -8 6 -10 15 -6 23
5 8 5 11 0 7 -4 -4 -15 -2 -24 5 -14 11 -14 10 0 -12z"/>
<path d="M5811 2360 c0 -8 4 -22 9 -30 12 -18 12 -2 0 25 -6 13 -9 15 -9 5z"/>
<path d="M5486 2334 c-10 -37 -2 -39 11 -4 6 17 8 30 3 30 -4 0 -11 -12 -14
-26z"/>
<path d="M5756 2335 c4 -8 8 -15 10 -15 2 0 4 7 4 15 0 8 -4 15 -10 15 -5 0
-7 -7 -4 -15z"/>
<path d="M5712 2310 c0 -19 2 -27 5 -17 2 9 2 25 0 35 -3 9 -5 1 -5 -18z"/>
<path d="M5672 2300 c0 -14 2 -19 5 -12 2 6 2 18 0 25 -3 6 -5 1 -5 -13z"/>
<path d="M140 1785 l0 -345 3005 0 3005 0 0 345 0 345 -3005 0 -3005 0 0 -345z
m5940 319 c0 -8 -4 -13 -9 -10 -5 3 -1339 6 -2966 6 -1955 0 -2954 3 -2950 10
4 7 1017 10 2966 10 2673 0 2959 -2 2959 -16z m49 -18 c7 -8 11 -32 8 -53 l-4
-38 -1 42 c-1 23 -5 44 -9 46 -5 3 -6 -124 -3 -283 4 -224 2 -286 -7 -283 -9
4 -13 77 -15 290 -2 156 -1 287 1 289 8 8 19 4 30 -10z m-4669 -16 c0 -5 -4
-10 -10 -10 -5 0 -10 5 -10 10 0 6 5 10 10 10 6 0 10 -4 10 -10z m209 -24 c-5
-6 -9 -17 -8 -25 0 -9 3 -11 5 -5 3 7 14 10 24 7 32 -8 23 -21 -12 -18 -23 2
-43 -5 -65 -21 -38 -28 -42 -43 -13 -41 12 1 19 7 17 16 -1 10 6 15 21 14 39
-1 42 -3 40 -15 -2 -10 17 -13 71 -13 69 -1 75 -2 76 -23 1 -19 -3 -22 -32
-22 l-33 0 0 -150 0 -150 -25 0 -25 0 0 150 0 150 -30 0 c-23 0 -30 5 -30 19
0 15 -5 19 -21 16 -29 -6 -33 -11 -24 -32 4 -10 9 -29 11 -43 2 -14 15 -74 29
-133 14 -59 25 -111 25 -117 0 -5 -11 -10 -25 -10 -18 0 -25 5 -25 20 0 11 -5
20 -11 20 -5 0 -7 5 -4 10 3 6 3 19 0 30 -5 15 -15 20 -40 20 -32 0 -33 -1
-40 -50 -6 -44 -10 -50 -31 -50 -29 0 -29 1 -4 113 10 48 17 94 14 102 -4 8
-2 15 4 15 17 0 33 92 19 109 -9 12 -9 13 1 7 15 -9 15 -1 2 25 -7 13 -7 19 0
19 5 0 10 -6 10 -12 1 -7 11 -1 23 14 14 18 33 28 55 30 31 2 37 11 33 47 -2
11 0 11 12 0 10 -9 12 -18 6 -23z m136 24 c8 -13 -5 -13 -25 0 -13 8 -13 10 2
10 9 0 20 -4 23 -10z m3310 0 c-3 -5 -11 -10 -16 -10 -6 0 -7 5 -4 10 3 6 11
10 16 10 6 0 7 -4 4 -10z m-3487 -13 c-7 -8 -23 -11 -37 -8 l-26 5 30 7 c45
10 47 10 33 -4z m132 3 c0 -5 -2 -10 -4 -10 -3 0 -8 5 -11 10 -3 6 -1 10 4 10
6 0 11 -4 11 -10z m3520 0 c0 -5 -2 -10 -4 -10 -3 0 -8 5 -11 10 -3 6 -1 10 4
10 6 0 11 -4 11 -10z m218 -18 c-7 -10 -14 -19 -15 -21 -3 -4 2 28 6 47 1 2 6
0 11 -3 8 -5 7 -12 -2 -23z m-3935 -12 c7 -26 -5 -38 -28 -29 -17 6 -17 8 -2
8 17 1 25 21 8 21 -5 0 -11 6 -14 14 -4 9 0 12 13 9 10 -3 20 -13 23 -23z
m1247 26 c0 -3 -4 -8 -10 -11 -5 -3 -10 -1 -10 4 0 6 5 11 10 11 6 0 10 -2 10
-4z m2190 -16 c12 -8 11 -10 -7 -10 -13 0 -23 5 -23 10 0 13 11 13 30 0z
m-3083 -6 c-3 -3 -12 -4 -19 -1 -8 3 -5 6 6 6 11 1 17 -2 13 -5z m271 -6 c-2
-5 -8 -9 -13 -9 -5 0 -11 4 -13 9 -1 5 4 9 13 9 9 0 14 -4 13 -9z m317 -18 c1
-11 -2 -20 -6 -20 -9 0 -19 37 -11 44 8 9 16 -2 17 -24z m65 14 c0 -2 -7 -4
-15 -4 -8 0 -15 4 -15 10 0 5 7 7 15 4 8 -4 15 -8 15 -10z m1950 6 c0 -5 -2
-10 -4 -10 -3 0 -8 5 -11 10 -3 6 -1 10 4 10 6 0 11 -4 11 -10z m-4107 -6 c3
-4 0 -16 -8 -27 -11 -15 -12 -24 -3 -34 8 -11 7 -12 -6 -7 -18 7 -13 45 6 53
6 2 4 7 -3 12 -8 5 -9 9 -3 9 6 0 14 -3 17 -6z m407 -3 c0 -19 -25 -29 -37
-16 -10 11 -9 15 5 18 28 8 32 7 32 -2z m296 -44 c-2 -7 -5 -4 -5 6 -1 19 -9
21 -31 7 -12 -8 -12 -10 -1 -10 8 0 12 -2 10 -5 -3 -2 -15 -1 -28 2 -23 6 -23
7 10 24 29 15 35 15 42 3 5 -8 6 -20 3 -27z m1884 6 c0 -2 -9 1 -19 7 -16 8
-22 6 -30 -7 -6 -10 -11 -13 -11 -6 0 6 5 15 10 18 6 4 7 11 4 17 -4 5 5 2 20
-7 14 -10 26 -19 26 -22z m387 31 c-3 -3 -12 -4 -19 -1 -8 3 -5 6 6 6 11 1 17
-2 13 -5z m1694 -11 c12 -15 12 -16 -3 -10 -12 4 -15 2 -11 -9 3 -8 2 -14 -3
-13 -23 4 -45 -2 -39 -11 4 -6 -1 -7 -11 -3 -11 4 -13 8 -6 11 7 2 12 11 12
20 0 14 2 14 9 3 7 -11 11 -9 20 8 14 25 15 25 32 4z m674 7 c-3 -5 -2 -10 3
-10 6 0 13 -7 16 -16 5 -14 4 -15 -9 -4 -13 11 -14 10 -9 -5 6 -15 5 -16 -15
-4 -12 8 -17 15 -11 17 5 2 10 10 10 18 0 8 5 14 11 14 5 0 7 -4 4 -10z
m-4474 -26 c-11 -16 -19 -19 -28 -12 -7 6 -13 16 -12 22 0 7 2 6 6 -1 2 -7 9
-13 14 -13 4 0 6 6 3 13 -3 8 3 13 15 13 18 0 18 -2 2 -22z m959 16 c0 -5 -2
-10 -4 -10 -3 0 -8 5 -11 10 -3 6 -1 10 4 10 6 0 11 -4 11 -10z m504 1 c3 -5
22 -8 41 -6 20 2 33 0 29 -6 -3 -5 -10 -7 -15 -4 -5 4 -9 -1 -9 -10 0 -12 4
-14 19 -5 27 14 34 13 19 -4 -7 -7 -20 -12 -28 -11 -8 2 -22 4 -30 5 -10 1
-11 3 -2 7 6 2 12 9 12 14 0 5 -11 3 -25 -3 -19 -9 -28 -9 -37 0 -9 9 -9 12 1
12 7 0 9 5 6 10 -3 6 -2 10 4 10 5 0 12 -4 15 -9z m146 -11 c11 -11 16 -20 12
-20 -4 0 -13 5 -19 11 -8 8 -13 8 -17 0 -4 -6 -1 -11 6 -11 7 -1 2 -7 -12 -15
l-25 -14 33 -1 c17 0 32 5 32 11 0 8 6 7 17 -2 15 -12 16 -12 10 3 -4 13 -2
15 10 11 8 -3 19 0 24 8 6 9 9 10 9 2 0 -6 -4 -14 -9 -17 -5 -4 -8 -17 -6 -31
2 -24 0 -25 -46 -25 l-49 0 0 -50 0 -50 44 0 c24 0 46 3 49 8 2 4 2 1 0 -6 -1
-8 -3 -20 -3 -28 0 -10 -13 -14 -45 -14 l-45 0 0 -60 0 -60 50 0 c44 0 50 -3
50 -21 0 -19 -5 -20 -85 -18 -47 1 -86 4 -86 8 -4 16 -5 93 -1 83 2 -8 8 -7
19 3 12 12 13 19 3 30 -7 8 -10 24 -7 34 3 14 1 18 -9 14 -11 -4 -14 5 -14 35
0 24 5 42 13 45 8 3 14 -1 14 -9 0 -7 -4 -11 -9 -8 -4 3 -8 -2 -8 -10 0 -8 5
-18 12 -22 7 -4 8 -3 4 4 -4 7 -2 12 4 12 6 0 10 12 8 28 -2 15 -8 26 -16 24
-9 -2 -9 5 3 28 8 16 15 33 14 37 -1 5 8 13 20 19 11 6 18 14 15 17 -7 7 2 37
11 37 3 0 14 -9 25 -20z m-2611 -6 c-10 -13 -10 -17 2 -26 11 -8 10 -9 -4 -4
-10 3 -32 6 -48 6 -19 0 -29 5 -29 15 0 17 25 20 35 5 3 -5 12 -10 18 -10 8 0
7 3 -2 9 -11 7 -10 10 5 14 34 8 37 7 23 -9z m263 -24 c5 0 7 4 4 9 -3 5 3 11
14 14 13 3 20 0 20 -9 0 -8 5 -14 11 -14 5 0 8 3 5 8 -8 13 38 28 69 22 28 -6
29 -7 8 -14 -13 -4 -27 -4 -33 -1 -5 3 -10 1 -10 -5 0 -6 -4 -8 -10 -5 -5 3
-10 1 -10 -6 0 -6 -8 -9 -20 -6 -10 3 -21 2 -23 -2 -2 -3 -2 0 0 8 3 11 1 11
-12 1 -17 -14 -50 -6 -40 10 3 5 2 10 -3 10 -15 0 -23 -28 -10 -32 7 -3 -7 -4
-30 -4 -27 1 -46 7 -52 16 -15 24 -11 36 5 14 8 -11 15 -14 15 -6 0 6 4 12 10
12 5 0 7 -6 4 -14 -4 -11 0 -13 15 -9 12 3 21 11 21 18 0 21 24 24 34 4 5 -11
13 -19 18 -19z m191 25 c4 -8 3 -16 -1 -19 -4 -3 -9 4 -9 15 -2 23 3 25 10 4z
m130 0 c19 -8 38 -11 42 -7 5 4 5 1 1 -5 -9 -15 3 -17 24 -3 11 7 11 10 2 10
-7 0 -10 5 -6 11 5 8 10 6 16 -5 9 -16 11 -16 31 1 11 10 17 13 14 6 -9 -14 9
-27 18 -13 3 5 11 10 16 10 6 0 7 -4 4 -10 -3 -5 2 -10 11 -10 25 0 9 -12 -21
-15 -14 -2 -27 1 -31 6 -3 5 -10 9 -15 9 -6 0 -8 -4 -5 -8 2 -4 -4 -13 -15
-20 -10 -7 -19 -8 -19 -3 0 5 6 11 13 14 6 2 9 7 6 11 -4 4 -13 0 -22 -8 -13
-14 -16 -14 -27 -1 -7 9 -30 18 -51 21 -21 4 -36 10 -33 15 7 11 5 12 47 -6z
m344 -14 c-7 -2 -20 -10 -29 -19 -16 -14 -18 -13 -18 7 0 25 40 46 52 27 4 -6
2 -13 -5 -15z m179 10 c6 -8 17 -11 25 -8 9 4 7 6 -6 6 -17 1 -17 3 -5 11 32
20 55 0 25 -22 -11 -8 -65 -11 -65 -4 0 2 -3 12 -6 21 -8 19 16 17 32 -4z
m381 5 c-3 -8 -1 -17 6 -20 9 -3 9 -5 0 -5 -6 -1 -15 4 -18 9 -3 6 -23 11 -43
12 -37 1 -37 1 8 8 25 4 47 8 49 8 2 1 1 -4 -2 -12z m126 -1 c-2 -7 5 -15 17
-18 17 -4 20 -2 15 11 -5 14 -4 15 6 5 20 -20 -3 -38 -29 -24 -24 13 -35 38
-17 38 7 0 11 -6 8 -12z m110 9 c8 -9 -31 -71 -51 -80 -32 -14 -41 -12 -39 7
2 23 17 26 17 4 0 -13 3 -13 19 2 11 10 19 21 18 25 -1 4 7 14 18 23 20 16 20
16 -4 9 -16 -4 -21 -3 -17 5 8 12 29 15 39 5z m112 -2 c-16 -11 -16 -32 -1
-32 8 0 21 7 30 15 16 16 50 10 39 -8 -4 -6 0 -8 10 -4 11 4 14 2 10 -9 -6
-17 8 -18 26 -1 7 6 12 8 11 2 -2 -5 -2 -21 -1 -34 1 -20 3 -22 16 -11 9 7 18
10 22 6 3 -3 2 -6 -4 -6 -22 0 -22 -35 1 -143 13 -62 27 -124 31 -139 6 -25 5
-28 -19 -28 -20 0 -27 7 -35 33 -5 17 -10 24 -10 13 -1 -15 -4 -16 -16 -6 -17
14 -20 36 -6 44 5 4 7 -4 4 -16 -4 -19 -3 -20 6 -8 19 27 12 40 -22 40 -32 0
-34 -2 -43 -47 l-9 -48 -65 -9 c-53 -7 -70 -5 -97 9 -25 14 -36 15 -46 6 -26
-21 -34 10 -34 124 l0 110 6 -85 c3 -47 9 -90 14 -97 4 -6 3 -14 -3 -18 -24
-15 -7 -25 28 -16 1 1 -5 15 -14 32 -12 24 -15 53 -13 118 2 47 0 93 -6 101
-8 13 -7 13 8 1 17 -13 22 -8 19 20 -1 3 17 16 39 28 51 29 103 26 107 -6 4
-24 22 -32 22 -10 0 6 6 1 13 -12 6 -14 17 -26 23 -28 15 -5 25 63 13 90 l-10
22 5 -22 c2 -13 0 -23 -5 -23 -5 0 -9 3 -9 8 0 6 -20 9 -85 12 -16 1 -17 3 -5
10 8 5 11 10 7 10 -21 0 5 16 30 18 15 1 24 -2 18 -6z m95 -2 c0 -5 -2 -10 -4
-10 -3 0 -8 5 -11 10 -3 6 -1 10 4 10 6 0 11 -4 11 -10z m187 -5 c0 -10 -4
-12 -12 -5 -6 5 -21 7 -32 4 -21 -6 -21 -6 -2 -25 10 -10 30 -19 43 -19 20 0
27 -9 42 -50 11 -29 22 -46 27 -41 5 5 2 19 -8 34 -12 20 -13 26 -3 30 9 4 6
12 -12 26 -20 17 -21 20 -5 14 26 -9 36 -24 29 -45 -4 -14 -1 -16 12 -11 13 5
15 3 9 -8 -5 -7 -10 -20 -11 -29 -1 -8 -5 -24 -9 -34 -5 -12 -5 -17 2 -13 5 3
18 33 28 67 17 55 21 60 47 60 15 0 28 5 28 11 0 5 -5 7 -12 3 -7 -5 -8 -3 -3
6 6 10 4 12 -9 7 -14 -6 -15 -3 -5 14 9 18 26 19 23 1 -1 -4 10 -16 23 -28 23
-20 23 -21 3 -20 -16 1 -27 -15 -57 -84 -30 -70 -38 -100 -41 -167 -3 -80 -4
-83 -28 -83 -23 0 -24 2 -24 78 0 76 -10 116 -24 93 -4 -6 -2 -11 4 -11 6 0 9
-16 8 -38 -5 -63 -23 -44 -25 27 -1 44 1 60 7 51 17 -27 10 -2 -14 53 -21 47
-46 73 -68 69 -4 -1 -5 7 -3 16 2 13 -3 18 -17 18 -12 -1 -23 5 -25 12 -3 7 4
12 16 12 12 0 21 3 21 8 0 4 17 8 38 9 28 2 39 -2 39 -12z m278 -6 c5 -5 -5
-4 -23 2 -17 6 -32 13 -32 16 0 7 43 -8 55 -18z m568 9 c9 0 17 -3 17 -9 0
-14 -58 -11 -63 4 -3 7 -6 5 -6 -5 -1 -10 -6 -18 -12 -18 -5 0 -7 5 -4 10 3 6
1 10 -4 10 -6 0 -11 5 -11 10 0 6 13 8 33 4 17 -4 40 -6 50 -6z m132 -10 c-1
-13 -4 -24 -5 -25 -1 -2 -3 -7 -4 -13 -1 -11 -10 -14 -29 -7 -7 2 -3 8 11 16
12 6 22 16 22 22 0 6 -3 8 -7 6 -5 -3 -17 0 -28 4 -18 9 -18 9 3 5 12 -2 22 0
22 5 0 5 4 9 9 9 4 0 7 -10 6 -22z m123 8 c9 12 44 15 36 3 -3 -5 -13 -9 -22
-9 -15 0 -15 -2 -2 -11 13 -9 12 -10 -2 -5 -10 3 -18 0 -18 -6 0 -13 -29 22
-30 36 0 5 7 3 16 -5 9 -7 18 -9 22 -3z m182 7 c0 -1 -13 -9 -30 -18 -16 -9
-30 -11 -30 -6 0 10 -17 9 -55 -4 -18 -6 -18 -5 -2 5 9 6 27 13 39 15 11 3 23
7 26 9 5 5 52 4 52 -1z m47 -10 c2 -6 -12 -20 -31 -31 -30 -18 -37 -19 -53 -7
-19 15 -19 16 39 19 30 2 51 16 24 16 -9 0 -14 5 -11 11 8 12 27 7 32 -8z m70
11 c13 -4 20 -11 16 -17 -4 -6 0 -8 10 -4 11 4 14 2 10 -9 -7 -18 -8 -18 -33
9 -16 16 -19 17 -15 5 5 -14 2 -18 -13 -18 -26 0 -39 19 -21 31 17 10 18 10
46 3z m83 -6 c0 -10 2 -10 9 0 7 12 12 12 30 1 11 -8 21 -20 21 -28 0 -11 -3
-11 -13 3 -10 14 -17 15 -37 6 -24 -10 -24 -10 -2 -6 13 2 22 0 20 -6 -2 -5
-6 -8 -10 -6 -3 2 -17 -9 -31 -24 -18 -19 -28 -23 -36 -15 -15 15 -14 28 2 26
28 -3 34 2 32 31 -1 17 2 30 7 30 4 0 8 -6 8 -12z m104 6 c8 -3 12 -12 9 -20
-3 -8 1 -14 11 -14 10 0 16 9 17 23 0 15 2 17 6 7 3 -8 11 -18 17 -22 7 -5 6
-8 -3 -8 -8 0 -23 -7 -33 -17 -17 -15 -18 -15 -18 2 0 11 -5 15 -14 12 -8 -3
-17 1 -20 9 -13 33 -5 41 28 28z m86 -15 c0 -11 5 -17 10 -14 6 3 10 1 10 -4
0 -6 -7 -11 -15 -11 -8 0 -15 4 -15 9 0 5 -3 16 -6 25 -3 9 -1 16 5 16 6 0 11
-9 11 -21z m25 11 c3 -5 1 -10 -4 -10 -6 0 -11 5 -11 10 0 6 2 10 4 10 3 0 8
-4 11 -10z m67 -8 c8 -6 19 -8 23 -4 5 4 5 1 1 -5 -4 -7 -14 -13 -22 -13 -8 0
-14 6 -14 13 0 6 -5 4 -11 -6 -5 -9 -8 -21 -5 -26 4 -5 -3 -7 -14 -4 -23 6
-27 23 -5 23 18 0 20 26 3 34 -7 2 -3 4 9 2 11 -1 28 -7 35 -14z m162 3 c3 -8
1 -15 -4 -15 -6 0 -10 7 -10 15 0 8 2 15 4 15 2 0 6 -7 10 -15z m66 6 c4 6 9
0 12 -15 4 -18 1 -26 -9 -26 -8 0 -12 4 -9 9 3 5 -8 14 -24 20 -17 5 -30 12
-30 15 0 3 12 1 27 -5 19 -7 28 -6 33 2z m43 2 c-22 -8 -14 -21 10 -16 22 5
22 5 2 -10 -15 -11 -22 -12 -27 -4 -13 21 -9 37 10 36 10 0 12 -3 5 -6z m105
-38 c15 -4 30 -11 33 -16 3 -6 20 3 37 18 36 34 52 39 52 17 0 -10 -5 -14 -16
-10 -8 3 -12 2 -9 -4 3 -6 -1 -10 -9 -10 -8 0 -21 -9 -29 -20 -8 -11 -16 -18
-18 -15 -3 2 -6 -6 -6 -18 -2 -19 1 -18 23 10 23 30 40 37 109 47 11 2 22 13
26 27 5 21 7 22 14 6 5 -12 -1 -35 -18 -67 -24 -45 -24 -50 -9 -72 12 -17 13
-20 2 -12 -8 6 -29 10 -45 9 -23 -1 -31 3 -31 16 0 10 3 16 6 14 3 -2 19 3 35
10 l30 13 -32 1 c-24 1 -37 -5 -49 -24 -8 -13 -13 -29 -9 -35 3 -5 1 -10 -6
-10 -20 0 -7 -144 15 -169 11 -12 24 -21 29 -21 6 0 7 3 4 7 -11 10 14 33 35
33 22 0 20 -22 -3 -28 -11 -3 -11 -2 1 7 13 9 13 11 -2 11 -10 0 -18 -7 -18
-15 0 -8 9 -15 20 -15 11 0 20 -4 20 -10 0 -5 4 -10 8 -10 12 0 42 144 35 172
-3 16 -2 19 5 10 6 -9 12 3 20 43 10 47 9 62 -3 85 -22 43 -17 60 6 20 14 -24
19 -28 16 -13 -4 19 -2 21 14 13 21 -12 40 -10 52 5 5 6 6 0 2 -12 -5 -17 39
-248 62 -326 4 -15 0 -18 -24 -15 -25 3 -29 8 -37 51 -8 45 -9 47 -42 47 -24
0 -34 -5 -34 -15 0 -8 5 -15 11 -15 5 0 7 6 3 13 -5 9 -4 9 6 0 15 -14 3 -36
-15 -29 -8 3 -15 -6 -18 -24 -6 -26 -10 -28 -71 -35 -38 -4 -72 -2 -83 3 -28
16 -73 10 -73 -9 0 -11 -12 -18 -40 -23 -22 -3 -40 -12 -40 -18 0 -6 -9 -2
-20 10 -22 23 -26 42 -10 42 6 0 10 -4 10 -10 0 -11 49 -14 73 -4 9 3 12 14 9
32 -5 26 -5 26 20 10 25 -16 26 -16 23 0 -2 9 -4 21 -4 25 -1 5 -5 6 -10 2 -6
-3 -9 47 -9 122 0 71 -1 135 -1 143 -1 8 -21 23 -46 33 -25 11 -45 25 -45 33
0 11 5 10 21 -5 12 -11 33 -22 47 -26z m22 8 c0 -1 -11 2 -25 9 -13 6 -22 15
-19 19 4 7 44 -19 44 -28z m280 26 c0 -5 -11 -9 -25 -9 -33 0 -33 15 0 16 14
1 25 -2 25 -7z m293 1 c-13 -5 -21 -15 -19 -22 1 -7 1 -10 -1 -6 -2 4 -12 5
-21 2 -12 -4 -9 1 7 15 13 12 31 21 40 20 11 0 9 -3 -6 -9z m57 0 c0 -5 -5
-10 -11 -10 -5 0 -7 5 -4 10 3 6 8 10 11 10 2 0 4 -4 4 -10z m69 -1 c-11 -6
-8 -9 9 -9 14 0 21 4 16 11 -4 7 1 7 16 -1 18 -10 24 -9 31 1 7 11 9 10 9 -3
0 -9 9 -19 20 -23 11 -3 19 -9 17 -13 -1 -4 9 -28 22 -55 20 -42 22 -58 19
-140 -5 -112 -6 -117 -39 -142 -14 -11 -25 -26 -23 -33 1 -7 0 -8 -3 -2 -5 12
-59 14 -66 3 -2 -5 -3 -3 -2 2 2 14 -42 54 -51 46 -4 -3 -4 2 -1 12 7 19 -9
24 -16 5 -4 -10 -6 -10 -6 -1 -1 6 4 15 9 18 6 3 10 16 10 28 0 17 -2 19 -9 8
-9 -14 -6 43 6 129 4 25 7 50 8 55 0 6 13 22 28 38 20 19 38 27 64 27 51 0 36
9 -26 15 -50 5 -52 5 -46 -16 6 -17 4 -21 -8 -16 -10 4 -17 -1 -20 -11 -3 -12
-5 -11 -6 5 0 12 4 25 9 28 6 3 10 10 10 16 0 18 -15 8 -32 -22 -15 -26 -18
-57 -18 -190 l0 -159 -25 0 -25 0 -2 168 c-2 107 -7 165 -13 162 -5 -3 -9 -25
-8 -50 1 -34 -1 -40 -9 -26 -8 15 -12 16 -26 4 -10 -8 -26 -14 -37 -14 -11 1
-24 -3 -28 -9 -5 -6 -7 -4 -4 5 2 8 9 16 15 16 7 1 13 2 15 4 1 1 11 3 21 5
10 2 26 11 35 20 15 15 13 16 -23 13 -51 -4 -74 -35 -82 -110 -6 -50 -4 -58
10 -58 9 0 16 6 16 13 0 8 3 8 9 -2 8 -12 12 -12 24 -2 9 6 18 8 21 3 3 -5 -6
-14 -20 -21 -20 -9 -24 -16 -19 -32 5 -15 4 -19 -5 -14 -6 4 -10 16 -7 26 3
12 0 19 -9 19 -18 0 -18 -14 1 -50 18 -35 40 -38 55 -10 11 20 30 19 30 -1 0
-6 -4 -7 -10 -4 -5 3 -10 1 -10 -4 0 -6 9 -11 19 -11 24 0 37 -18 23 -32 -6
-6 -8 -17 -5 -24 3 -8 0 -14 -7 -14 -6 0 -8 5 -4 11 5 8 -6 10 -35 7 -22 -2
-41 -1 -41 3 0 4 -9 9 -19 12 -22 5 -61 63 -61 90 0 9 -8 17 -17 18 -11 0 -13
3 -5 6 7 3 12 22 12 46 0 62 17 114 50 150 24 27 35 32 81 34 42 1 54 5 53 17
-1 9 3 16 8 16 6 0 8 -9 5 -20 -4 -17 0 -20 28 -20 26 0 35 5 44 28 8 19 19
27 38 29 19 1 22 -1 12 -8z m299 -13 c2 -10 -1 -23 -7 -29 -16 -16 -14 -37 3
-31 8 3 17 0 22 -7 5 -8 3 -10 -6 -4 -10 6 -12 4 -7 -8 8 -22 -9 -22 -21 -1
-6 10 -12 13 -16 6 -7 -12 3 -44 13 -38 3 2 13 -3 21 -12 13 -14 12 -15 -3 -9
-9 3 -17 5 -17 4 0 -1 14 -36 30 -77 17 -41 28 -64 24 -50 -3 14 -6 42 -5 62
1 32 -1 37 -16 31 -17 -6 -17 -5 -1 13 14 16 15 23 6 32 -9 9 -9 12 0 12 15 0
16 54 1 81 -7 15 -7 24 1 34 13 16 62 17 53 1 -6 -8 1 -7 47 6 8 3 11 3 6 0
-4 -2 -2 -9 5 -14 11 -8 11 -9 -1 -5 -8 2 -24 1 -35 -4 -16 -6 -14 -8 13 -8
17 -1 32 -5 32 -10 0 -6 23 -10 52 -9 33 0 46 3 37 9 -8 5 -9 9 -3 9 16 0 34
-22 34 -42 0 -15 -8 -18 -45 -18 l-45 0 0 -50 0 -50 40 0 c33 0 40 -3 40 -20
0 -17 -7 -20 -40 -20 l-40 0 0 -60 0 -60 50 0 c29 0 50 -5 50 -11 0 -5 5 -7
11 -4 6 4 8 13 5 21 -6 17 6 18 21 3 6 -6 26 -9 44 -7 29 3 34 7 37 32 3 21 0
26 -10 20 -11 -6 -11 -5 0 8 10 13 10 19 -2 31 -9 8 -19 17 -23 19 -5 1 -20
18 -35 36 -42 51 -39 102 8 140 31 26 41 29 66 21 17 -4 33 -11 36 -14 8 -7
10 -44 3 -43 -14 3 -40 -15 -35 -23 3 -5 0 -8 -8 -7 -7 2 -12 -2 -11 -8 1 -7
-3 -11 -10 -10 -7 0 -12 -3 -12 -9 0 -5 3 -9 8 -7 4 1 6 -1 5 -6 -2 -4 14 -24
35 -45 33 -33 37 -43 37 -86 0 -43 -4 -53 -31 -76 -27 -22 -39 -25 -84 -23
-29 2 -51 6 -48 10 2 4 -3 5 -11 2 -9 -3 -16 -13 -16 -21 0 -8 -4 -11 -10 -8
-5 3 -10 2 -10 -3 0 -5 -7 -9 -15 -9 -8 0 -15 9 -15 20 0 17 -6 18 -52 15 -36
-2 -52 1 -54 10 -1 7 0 8 3 2 16 -33 22 9 25 165 3 155 1 174 -13 170 -8 -3
-25 6 -37 20 -27 31 -44 32 -40 3 2 -15 11 -24 26 -26 22 -3 22 -5 22 -173 l0
-170 -26 3 c-24 3 -31 13 -59 86 -17 45 -35 79 -40 75 -4 -5 -5 -3 -2 4 4 6 3
22 -2 35 -7 16 -10 -8 -10 -88 l-1 -112 -30 -4 c-35 -5 -60 16 -42 34 16 16
15 31 0 22 -10 -6 -10 -5 -1 8 7 8 9 19 5 23 -4 5 -1 5 6 1 8 -5 12 0 12 14 0
12 -4 18 -10 15 -6 -4 -10 19 -9 62 1 45 3 59 8 43 7 -25 7 -25 13 -3 3 13 2
26 -3 29 -5 3 -9 10 -9 15 0 6 5 7 12 3 7 -5 8 -3 4 5 -5 7 -14 10 -22 7 -15
-6 -18 3 -16 43 1 14 -4 31 -11 39 -10 13 -9 14 9 4 21 -11 25 -36 11 -60 -6
-8 -3 -10 8 -6 10 4 15 14 12 25 -4 15 1 19 24 19 17 0 32 -6 35 -15 4 -8 10
-15 15 -15 14 0 10 37 -6 53 -8 8 -13 16 -12 18 1 3 -4 -3 -12 -11 -12 -13
-13 -13 -8 3 7 20 -3 22 -23 5 -12 -11 -12 -10 -2 4 18 23 96 18 100 -6z m340
12 c-2 -8 5 -12 17 -10 17 3 16 1 -5 -16 -18 -14 -27 -17 -32 -9 -10 15 -28
-10 -22 -28 3 -6 -2 -18 -10 -25 -9 -7 -14 -16 -11 -20 6 -10 -34 -25 -42 -16
-4 3 1 6 9 6 15 0 33 26 29 44 -1 4 4 15 10 23 7 8 8 13 3 12 -21 -4 -35 2
-29 11 4 6 10 8 15 5 5 -3 11 -1 15 4 3 6 12 8 19 5 7 -3 16 2 19 10 8 19 18
21 15 4z m-5558 -18 c-27 -21 -33 -20 -25 1 3 8 16 16 28 16 22 2 22 2 -3 -17z
m2135 9 c4 -6 13 -8 20 -5 8 3 12 -2 10 -12 -2 -9 -4 -19 -4 -21 -1 -3 -8 4
-16 15 -15 19 -15 19 -9 -1 l6 -20 -13 20 c-7 11 -17 23 -23 27 -7 5 -4 8 6 8
9 0 20 -5 23 -11z m991 -16 c-8 -8 29 -40 39 -35 6 3 2 -3 -7 -14 -13 -15 -27
-19 -52 -16 -28 3 -37 -1 -51 -22 -9 -14 -14 -30 -10 -36 3 -5 1 -10 -6 -10
-8 0 -10 -21 -7 -75 6 -91 23 -115 80 -115 21 0 38 -5 38 -11 0 -5 3 -8 8 -6
4 3 12 -1 19 -8 10 -10 9 -14 -3 -19 -9 -3 -12 -1 -9 4 3 6 2 10 -4 10 -5 0
-13 -4 -16 -10 -10 -16 -78 -12 -104 6 -17 12 -26 13 -34 5 -6 -6 -15 -11 -21
-11 -5 0 -2 6 8 13 17 13 17 15 2 45 -11 21 -16 57 -16 107 0 48 -4 74 -10 70
-5 -3 -11 -3 -11 2 -6 35 -5 52 2 47 8 -5 13 9 10 28 0 3 10 5 23 4 17 -2 33
8 57 35 28 33 35 36 56 26 12 -5 21 -12 19 -14z m797 21 c3 -4 -1 -14 -10 -22
-9 -9 -12 -17 -7 -18 5 -1 22 -5 37 -8 15 -4 25 -11 22 -16 -7 -11 16 -63 32
-73 7 -4 13 -13 13 -20 0 -7 -4 -6 -10 3 -18 27 -9 -4 15 -55 l23 -50 1 108 1
107 25 0 25 0 0 -170 0 -170 -23 0 c-22 0 -51 25 -53 45 -1 29 -17 64 -27 58
-5 -3 -7 -1 -3 5 3 6 -3 32 -13 59 l-20 48 0 -108 -1 -107 -44 3 c-25 1 -49 6
-53 11 -4 4 -3 7 2 6 33 -7 45 1 45 30 0 17 -4 30 -10 30 -5 0 -7 -8 -4 -17 5
-17 5 -17 -6 0 -6 9 -15 17 -19 17 -8 0 -25 -56 -22 -72 0 -5 -2 -7 -6 -6 -5
1 -19 -2 -31 -6 -35 -12 -90 2 -103 26 -6 11 -19 50 -29 87 -15 54 -17 79 -10
136 5 39 9 76 10 83 0 7 13 12 30 12 l30 0 0 -137 c0 -76 4 -142 8 -148 13
-18 42 -17 42 2 0 15 -2 16 -11 3 -9 -12 -10 -12 -7 -1 6 22 28 25 29 4 0 -16
1 -16 9 2 5 11 9 79 9 151 l1 131 25 -5 25 -4 0 -124 c0 -74 4 -125 10 -129 7
-4 9 2 5 18 -4 15 -2 28 5 32 9 5 10 1 6 -13 -4 -11 -2 -23 4 -27 7 -4 10 35
10 119 0 126 0 126 -25 132 -26 6 -25 24 1 24 8 0 12 -4 9 -10 -3 -5 -2 -10 3
-10 15 0 22 28 9 34 -7 2 -6 5 4 5 9 1 18 -2 22 -5z m1177 -4 c0 -5 -2 -10 -4
-10 -3 0 -8 5 -11 10 -3 6 -1 10 4 10 6 0 11 -4 11 -10z m-3613 -15 c2 -6 -7
-11 -19 -12 -13 0 -17 1 -9 4 11 5 11 7 0 15 -11 7 -9 8 5 6 11 -2 21 -8 23
-13z m31 1 c-7 -8 -15 -12 -17 -11 -5 6 10 25 20 25 5 0 4 -6 -3 -14z m172 -1
c-7 -8 -18 -15 -24 -15 -6 0 -2 7 8 15 25 19 32 19 16 0z m605 5 c4 -6 -1 -7
-12 -3 -15 6 -16 4 -5 -9 10 -13 29 -15 92 -13 79 3 80 2 80 -21 0 -20 -5 -24
-30 -24 l-30 0 0 -150 0 -150 -25 0 -25 0 0 150 0 150 -30 0 c-25 0 -30 4 -30
25 0 14 -7 28 -16 32 -13 5 -13 7 -2 14 17 11 26 11 33 -1z m485 0 c0 -5 -5
-10 -11 -10 -5 0 -7 5 -4 10 3 6 8 10 11 10 2 0 4 -4 4 -10z m1480 0 c-20 -13
-33 -13 -25 0 3 6 14 10 23 10 15 0 15 -2 2 -10z m277 4 c-3 -3 -12 -4 -19 -1
-8 3 -5 6 6 6 11 1 17 -2 13 -5z m1078 -4 c3 -5 1 -10 -4 -10 -6 0 -11 5 -11
10 0 6 2 10 4 10 3 0 8 -4 11 -10z m43 -8 c2 -7 -3 -12 -12 -12 -9 0 -16 7
-16 16 0 17 22 14 28 -4z m-5628 -4 c0 -6 -3 -8 -7 -5 -3 4 -12 -1 -19 -11
-10 -12 -13 -61 -14 -179 l0 -163 -24 0 c-32 0 -36 18 -33 193 l2 147 33 0
c18 0 31 4 28 9 -4 5 0 12 6 14 21 9 28 8 28 -5z m415 4 c14 -10 17 -32 5 -32
-5 0 -10 7 -10 15 0 8 -4 15 -10 15 -5 0 -10 -5 -10 -11 0 -5 -4 -8 -9 -4 -13
8 -5 -33 10 -51 9 -11 8 -14 -5 -14 -10 0 -14 5 -11 10 4 6 -13 10 -44 10
l-51 0 0 -55 0 -55 45 0 c38 0 45 -3 45 -20 0 -17 -7 -20 -45 -20 l-45 0 0
-75 c0 -66 -2 -75 -18 -75 -11 0 -27 9 -37 20 -10 11 -13 20 -7 20 8 0 12 48
14 153 l3 152 57 -3 c40 -3 64 1 80 12 25 18 29 19 43 8z m51 -3 c3 -6 17 -8
30 -5 13 4 24 3 24 -2 0 -17 45 -30 65 -19 26 14 143 9 169 -8 12 -8 32 -13
44 -10 23 4 30 -9 12 -20 -8 -5 -7 -11 1 -21 10 -12 9 -17 0 -27 -10 -9 -11
-8 -6 4 4 10 2 20 -4 23 -6 4 -7 14 -4 23 4 10 2 14 -4 10 -6 -4 -8 -25 -6
-51 5 -38 2 -48 -19 -69 -23 -23 -24 -25 -7 -45 9 -12 20 -47 25 -79 7 -56 8
-57 15 -23 l6 35 2 -38 1 -38 -40 3 c-30 1 -39 6 -35 16 7 19 -6 92 -17 92 -5
0 -6 -4 -3 -10 3 -6 -1 -7 -12 -4 -17 5 -17 5 -1 -6 10 -6 15 -17 11 -26 -5
-14 -8 -12 -19 7 -18 32 -17 36 7 42 25 7 16 27 -12 27 -17 0 -19 -7 -19 -70
0 -68 -1 -70 -25 -70 l-25 0 0 159 c0 88 -4 162 -9 165 -19 12 -43 -6 -36 -28
4 -11 10 -61 12 -111 3 -51 10 -93 17 -97 7 -5 5 -8 -6 -8 -10 0 -18 -7 -18
-16 0 -8 -13 -28 -29 -44 -20 -20 -25 -32 -18 -39 8 -8 8 -11 0 -11 -7 0 -15
5 -18 10 -3 6 -17 10 -29 10 -13 0 -35 12 -50 27 -27 26 -27 27 -33 5 -3 -12
-10 -22 -15 -22 -5 0 -6 5 -3 10 11 18 16 100 6 100 -16 0 -22 -18 -9 -23 7
-2 9 -8 5 -13 -5 -5 -14 -1 -21 8 -7 10 -16 15 -19 11 -4 -3 -7 -3 -7 1 0 3
11 11 25 16 14 5 25 14 25 20 0 6 -6 8 -12 4 -10 -6 -10 -4 0 7 14 16 16 49 2
49 -5 0 -10 5 -10 11 0 5 4 8 9 5 5 -4 7 3 4 14 -3 11 -9 17 -14 14 -5 -3 -9
1 -9 8 0 9 -3 9 -10 -2 -6 -9 -10 -10 -10 -3 0 6 4 14 10 18 5 3 8 11 6 18 -1
7 -1 9 1 5 3 -5 12 -8 21 -8 13 0 14 -2 4 -9 -10 -6 -10 -10 1 -20 12 -9 16
-5 23 26 4 21 7 41 6 46 -1 4 1 6 6 5 4 -2 18 5 30 14 22 15 23 17 5 27 -10 6
-13 11 -6 11 6 0 15 -5 19 -11z m2184 -5 c0 -2 -9 -4 -20 -4 -11 0 -20 4 -20
9 0 5 9 7 20 4 11 -3 20 -7 20 -9z m300 -6 c-11 -12 -20 -28 -20 -35 0 -9 -15
-13 -45 -13 l-45 0 0 -50 0 -50 40 0 c33 0 40 -3 40 -20 0 -17 -7 -20 -40 -20
l-40 0 0 -60 0 -60 43 0 c24 0 49 6 55 12 10 10 15 10 22 -2 11 -18 0 -37 -11
-19 -7 11 -10 9 -15 -8 -6 -21 -12 -23 -75 -23 l-69 0 2 173 3 172 50 -3 c32
-2 62 3 80 12 41 22 49 20 25 -6z m1027 11 c-18 -10 -18 -11 0 -26 10 -8 13
-12 7 -9 -7 3 -18 -2 -25 -11 -13 -14 -11 -16 14 -11 16 3 27 1 27 -6 0 -11
-49 -19 -51 -7 -6 37 -2 67 11 73 24 11 37 8 17 -3z m643 -4 c14 -17 0 -21
-16 -5 -7 7 -11 6 -11 -5 0 -8 4 -15 9 -15 4 0 8 -5 8 -11 0 -5 -5 -7 -10 -4
-6 4 -18 1 -26 -6 -8 -6 -18 -8 -22 -4 -4 4 -1 10 6 12 6 3 12 13 12 22 0 33
28 42 50 16z m-1830 1 c0 -2 -7 -6 -15 -10 -8 -3 -15 -1 -15 4 0 6 7 10 15 10
8 0 15 -2 15 -4z m419 -9 c33 5 43 1 67 -23 35 -35 39 -53 39 -164 -1 -65 -5
-93 -20 -120 -10 -19 -19 -37 -18 -40 1 -3 -17 -6 -39 -8 -50 -3 -85 18 -104
63 -16 40 -19 171 -3 211 l10 28 -26 -28 c-15 -16 -32 -25 -40 -22 -8 3 -15 2
-16 -2 -8 -77 -15 -99 -33 -118 -19 -19 -20 -14 -4 21 9 21 9 28 -1 35 -10 6
-9 12 8 29 14 14 20 30 17 50 -3 27 -1 29 16 20 10 -5 16 -14 13 -20 -4 -5 -2
-9 4 -9 12 0 51 40 51 52 0 5 4 7 9 3 19 -11 23 18 5 33 -16 13 -17 14 -1 9
10 -4 17 -1 18 6 0 8 2 9 5 1 3 -8 19 -10 43 -7z m891 3 c-8 -5 -19 -10 -25
-10 -5 0 -3 5 5 10 8 5 20 10 25 10 6 0 3 -5 -5 -10z m817 4 c-3 -3 -12 -4
-19 -1 -8 3 -5 6 6 6 11 1 17 -2 13 -5z m-1492 -16 c-3 -7 8 -62 24 -123 16
-60 30 -103 32 -95 1 8 3 20 4 25 1 6 9 34 18 64 9 30 17 58 17 61 0 11 -35 8
-42 -4 -5 -8 -8 -7 -8 2 0 13 40 33 53 25 4 -2 7 7 7 21 0 22 5 26 29 26 29 0
30 -1 35 -62 3 -35 8 -111 12 -170 l6 -108 -26 0 c-26 0 -26 1 -27 78 -2 133
-11 139 -39 23 -21 -90 -26 -102 -44 -99 -16 2 -25 22 -48 108 -26 103 -27
104 -29 55 -1 -27 -3 -57 -5 -65 -1 -8 -2 -34 -3 -57 -1 -39 -3 -43 -26 -43
-25 0 -25 0 -19 74 5 50 3 75 -5 80 -6 4 -11 15 -11 24 0 13 2 14 9 4 10 -16
21 43 20 103 l-2 40 -7 -35 -7 -35 -2 37 c-1 31 3 38 22 42 12 3 31 7 42 9 11
3 21 5 22 6 1 0 0 -5 -2 -11z m-3349 -47 c10 -28 20 -48 24 -46 3 2 6 -4 7
-13 1 -9 10 -42 21 -72 l21 -55 0 118 c1 110 2 117 21 117 19 0 20 -7 20 -169
0 -93 3 -171 8 -174 4 -2 1 -2 -6 0 -8 1 -21 3 -31 3 -11 0 -23 17 -35 48 -10
26 -29 74 -42 107 l-23 60 0 -62 c-1 -44 3 -63 12 -64 10 0 10 -2 0 -6 -8 -2
-13 -22 -13 -44 0 -35 -3 -39 -25 -39 l-25 0 0 170 0 170 24 0 c20 0 27 -9 42
-49z m844 -64 c15 -60 30 -110 33 -113 10 -10 16 70 6 87 -6 12 -6 19 0 19 5
0 12 -6 15 -12 4 -7 4 -3 2 10 -2 12 0 22 5 22 5 0 9 6 9 13 0 6 5 29 11 50 9
32 14 37 39 37 30 0 30 -1 31 -57 0 -32 4 -109 7 -171 7 -110 7 -112 -14 -112
-26 0 -33 34 -35 155 l-1 80 -13 -55 c-17 -67 -18 -79 -4 -60 9 12 10 12 5 -3
-3 -10 -6 -26 -7 -35 0 -15 -1 -14 -8 1 -5 14 -10 6 -20 -32 -10 -39 -17 -51
-32 -51 -10 0 -19 5 -19 11 0 5 -5 7 -12 3 -8 -5 -9 -2 -5 10 8 21 -12 108
-23 101 -5 -3 -6 3 -4 12 3 10 1 36 -5 58 -8 35 -9 28 -10 -55 -1 -114 -7
-140 -31 -140 -14 0 -19 11 -24 53 -9 82 -11 91 -19 104 -4 7 -14 10 -22 6 -8
-3 -15 -3 -15 0 0 16 33 13 50 -5 l20 -22 1 95 c1 52 1 98 0 102 -1 5 13 7 30
5 31 -3 31 -4 59 -111z m35 103 c-3 -5 0 -10 7 -10 8 0 6 -5 -5 -11 -9 -6 -15
-16 -11 -22 3 -7 -1 -4 -10 7 -11 14 -12 21 -3 32 14 15 31 19 22 4z m567
-160 l-3 -170 -24 0 -25 0 0 120 c0 118 -2 126 -32 121 -5 0 -8 6 -8 15 0 11
6 14 23 10 12 -3 16 -3 10 0 -7 3 -13 10 -13 15 0 6 5 7 11 3 7 -4 10 3 9 17
-3 37 -2 39 28 39 l27 0 -3 -170z m1148 20 l0 -150 45 0 c47 0 52 -7 37 -55
-5 -15 -16 -20 -41 -20 -32 0 -58 23 -29 26 7 1 -5 5 -26 8 l-39 6 -1 167 -1
168 28 0 27 0 0 -150z m658 123 c1 -24 0 -25 -9 -10 -5 9 -7 22 -4 27 9 15 10
13 13 -17z m824 -143 l-3 -170 -24 0 -25 0 0 170 0 170 28 0 27 0 -3 -170z
m-4264 104 l-3 -39 -5 47 c-3 26 -1 43 3 39 5 -5 7 -26 5 -47z m244 16 c-2
-22 -6 -40 -8 -40 -2 0 -4 18 -4 40 0 22 3 40 8 40 4 0 6 -18 4 -40z m86 -81
l-3 -104 -5 112 c-3 62 -1 109 3 104 4 -4 6 -55 5 -112z m1569 101 c-1 -12 -5
-16 -10 -11 -5 5 -6 14 -3 20 11 16 15 13 13 -9z m432 -7 c-10 -12 -10 -16 2
-24 8 -5 19 -9 26 -9 7 0 10 -6 7 -14 -3 -8 -14 -14 -25 -13 -22 1 -25 12 -6
21 6 3 -1 4 -18 1 -19 -4 -25 -2 -17 3 8 5 13 13 12 18 -3 21 9 46 20 39 8 -5
8 -11 -1 -22z m1241 -9 c0 -27 -18 -23 -22 6 -4 24 -2 27 9 19 7 -7 13 -17 13
-25z m-3463 -6 c-3 -7 -5 -2 -5 12 0 14 2 19 5 13 2 -7 2 -19 0 -25z m1112
-24 c7 -31 15 -63 18 -70 3 -8 0 -14 -6 -14 -6 0 -11 14 -11 30 0 17 -4 30 -9
30 -5 0 -11 18 -13 40 -5 58 5 49 21 -16z m45 48 c-6 -4 -14 -14 -17 -22 -4
-10 -6 -8 -6 8 -1 15 5 22 17 22 10 0 13 -3 6 -8z m1623 -174 c-2 -35 -3 -7
-3 62 0 69 1 97 3 63 2 -35 2 -91 0 -125z m853 172 c0 -5 -2 -10 -4 -10 -3 0
-8 5 -11 10 -3 6 -1 10 4 10 6 0 11 -4 11 -10z m137 -112 c-2 -24 -4 -5 -4 42
0 47 2 66 4 43 2 -24 2 -62 0 -85z m634 103 c6 11 9 8 9 -8 0 -13 -6 -23 -14
-23 -20 0 -27 15 -19 37 7 17 8 17 11 -1 3 -15 6 -16 13 -5z m137 -6 c-3 -3
-9 2 -12 12 -6 14 -5 15 5 6 7 -7 10 -15 7 -18z m749 -117 c-2 -29 -3 -8 -3
47 0 55 1 79 3 53 2 -26 2 -71 0 -100z m-3314 70 c-3 -21 -10 -38 -15 -38 -6
0 -8 6 -5 13 3 7 -1 21 -9 32 -19 25 -18 41 1 25 21 -17 31 -5 14 17 -12 16
-11 16 3 3 11 -10 14 -26 11 -52z m2876 43 c8 -14 7 -20 -2 -24 -7 -3 -12 5
-12 19 0 29 1 29 14 5z m-4539 -11 c0 -5 -2 -10 -4 -10 -3 0 -8 5 -11 10 -3 6
-1 10 4 10 6 0 11 -4 11 -10z m26 -6 c-3 -9 -6 -18 -6 -20 0 -2 -8 -4 -17 -3
-11 0 -13 3 -5 6 6 2 12 11 12 19 0 8 5 14 11 14 6 0 8 -7 5 -16z m964 12 c0
-3 -4 -8 -10 -11 -5 -3 -10 -1 -10 4 0 6 5 11 10 11 6 0 10 -2 10 -4z m21 -15
c-11 -7 -11 -10 0 -14 10 -4 9 -6 -3 -6 -10 -1 -18 3 -18 7 0 12 23 33 29 26
3 -3 -1 -9 -8 -13z m101 -8 c-5 -24 -6 -25 -12 -8 -8 21 -4 35 9 35 5 0 6 -12
3 -27z m488 12 c0 -8 -4 -15 -10 -15 -5 0 -7 7 -4 15 4 8 8 15 10 15 2 0 4 -7
4 -15z m490 -20 c-21 -26 -31 -16 -13 11 9 15 19 21 21 15 2 -6 -2 -18 -8 -26z
m140 15 c11 -11 16 -20 12 -20 -5 0 -17 9 -27 20 -10 11 -15 20 -12 20 4 0 16
-9 27 -20z m36 5 c9 -8 12 -15 7 -15 -4 0 1 -7 11 -15 19 -15 19 -15 -2 -15
-15 0 -22 6 -22 20 0 11 -4 20 -10 20 -5 0 -10 5 -10 10 0 14 9 12 26 -5z
m2128 3 c-4 -5 -9 -7 -12 -4 -3 3 -11 1 -19 -5 -8 -8 -13 -8 -13 -1 0 11 16
19 37 19 7 0 10 -4 7 -9z m714 -2 c-7 -8 -15 -12 -17 -11 -5 6 10 25 20 25 5
0 4 -6 -3 -14z m-3125 -3 c-7 -2 -13 -11 -13 -19 0 -8 -4 -14 -10 -14 -5 0
-10 4 -10 8 0 12 22 32 35 31 5 0 4 -3 -2 -6z m3334 -8 c0 -8 -3 -13 -5 -10
-3 3 -15 -3 -26 -12 -20 -18 -20 -17 -6 2 12 16 30 34 36 35 0 0 1 -7 1 -15z
m-2717 -11 c0 -2 -7 -4 -15 -4 -8 0 -15 4 -15 10 0 5 7 7 15 4 8 -4 15 -8 15
-10z m2475 6 c3 -5 1 -10 -4 -10 -6 0 -11 5 -11 10 0 6 2 10 4 10 3 0 8 -4 11
-10z m-4091 -15 c3 -8 1 -15 -3 -15 -5 0 -11 7 -15 15 -3 8 -1 15 3 15 5 0 11
-7 15 -15z m646 -23 c0 -7 -7 -20 -15 -28 -13 -14 -15 -14 -15 -1 0 9 -3 23
-7 33 -5 13 -3 16 10 11 12 -4 15 -2 11 11 -5 14 -4 15 5 2 6 -8 11 -21 11
-28z m1525 28 c3 -5 1 -10 -4 -10 -6 0 -11 5 -11 10 0 6 2 10 4 10 3 0 8 -4
11 -10z m26 -13 c-10 -9 -11 -8 -5 6 3 10 9 15 12 12 3 -3 0 -11 -7 -18z
m1976 9 c-3 -7 0 -20 6 -27 10 -11 9 -11 -5 0 -15 11 -15 41 -1 41 3 0 3 -6 0
-14z m-624 -11 c-3 -9 -8 -14 -10 -11 -3 3 -2 9 2 15 9 16 15 13 8 -4z m574
-7 c0 -13 -1 -17 -4 -10 -4 10 -8 10 -21 0 -12 -9 -11 -6 2 10 11 12 20 22 20
22 1 0 2 -10 3 -22z m-4098 -78 c-2 -85 -9 -110 -23 -74 -3 8 -2 12 4 9 6 -3
10 -1 10 4 0 6 -4 11 -10 11 -5 0 -10 5 -10 11 0 5 5 7 10 4 14 -9 12 7 -5 29
-8 10 -12 23 -8 29 3 5 -1 13 -8 18 -11 6 -11 11 -1 21 9 9 12 9 12 -4 0 -9 5
-20 11 -24 6 -3 10 1 9 12 -3 27 -1 44 6 44 3 0 4 -40 3 -90z m1555 75 c3 -8
1 -15 -3 -15 -5 0 -11 7 -15 15 -3 8 -1 15 3 15 5 0 11 -7 15 -15z m1526 11
c0 -2 -7 -9 -15 -16 -13 -11 -14 -10 -9 4 5 14 24 23 24 12z m-4067 -21 c15 2
27 0 27 -4 0 -4 -16 -7 -35 -8 -26 -1 -35 3 -35 15 0 11 3 13 8 6 4 -7 19 -10
35 -9z m1852 -20 c1 -13 -3 -21 -8 -18 -4 3 -6 11 -3 19 3 8 1 14 -5 14 -6 0
-7 5 -4 11 10 15 20 2 20 -26z m3260 25 c3 -5 1 -10 -4 -10 -6 0 -11 5 -11 10
0 6 2 10 4 10 3 0 8 -4 11 -10z m-5310 -10 c3 -5 1 -10 -4 -10 -6 0 -11 5 -11
10 0 6 2 10 4 10 3 0 8 -4 11 -10z m472 -12 c-3 -8 -6 -5 -6 6 -1 11 2 17 5
13 3 -3 4 -12 1 -19z m2331 -3 c-3 -3 -9 2 -12 12 -6 14 -5 15 5 6 7 -7 10
-15 7 -18z m1617 15 c3 -5 1 -10 -4 -10 -6 0 -11 5 -11 10 0 6 2 10 4 10 3 0
8 -4 11 -10z m1050 0 c25 -10 27 -31 2 -29 -7 0 -6 3 2 6 10 4 5 10 -15 19
-35 15 -26 18 11 4z m-1242 -13 c3 -8 2 -20 -3 -26 -5 -9 -7 -4 -7 13 0 29 2
32 10 13z m307 -18 c-14 -26 -18 -24 -12 6 2 14 8 22 13 19 5 -3 5 -14 -1 -25z
m-3710 -5 c0 -8 -4 -12 -10 -9 -5 3 -10 13 -10 21 0 8 5 12 10 9 6 -3 10 -13
10 -21z m447 4 c-3 -8 -6 -5 -6 6 -1 11 2 17 5 13 3 -3 4 -12 1 -19z m33 12
c0 -5 -5 -10 -11 -10 -5 0 -7 5 -4 10 3 6 8 10 11 10 2 0 4 -4 4 -10z m1667
-42 c-1 -44 -2 -47 -10 -25 -5 15 -13 25 -18 22 -5 -4 -6 1 -3 9 3 9 10 16 15
16 5 0 9 7 9 15 0 8 2 15 4 15 2 0 3 -23 3 -52z m1163 37 c7 -9 8 -15 2 -15
-5 0 -12 7 -16 15 -3 8 -4 15 -2 15 2 0 9 -7 16 -15z m380 6 c0 -6 -4 -13 -10
-16 -5 -3 -10 1 -10 9 0 9 5 16 10 16 6 0 10 -4 10 -9z m100 -19 c0 -15 -2
-15 -10 -2 -13 20 -13 33 0 25 6 -3 10 -14 10 -23z m729 11 c-12 -15 -12 -16
3 -10 12 4 23 -1 34 -18 8 -13 23 -26 32 -28 15 -4 15 -5 0 -6 -10 0 -23 8
-30 19 -7 11 -22 20 -33 20 -14 0 -16 -3 -7 -8 8 -6 -8 -12 -43 -19 -31 -5
-58 -6 -61 -1 -3 4 6 8 20 8 31 0 81 18 72 27 -6 6 11 33 21 33 3 0 -1 -8 -8
-17z m-3531 -33 c1 -22 -2 -40 -7 -40 -5 0 -7 8 -4 19 3 10 0 22 -6 25 -8 5
-7 11 2 21 6 8 12 14 13 15 0 0 1 -18 2 -40z m989 8 c-3 -8 -6 -5 -6 6 -1 11
2 17 5 13 3 -3 4 -12 1 -19z m812 5 c-3 -20 2 -34 10 -29 5 4 7 -3 4 -14 -7
-27 -23 -36 -24 -13 -1 12 -3 10 -8 -7 l-7 -25 -6 28 c-3 15 -2 27 2 27 4 0
10 9 13 20 5 19 18 29 16 13z m-126 -23 c3 -11 1 -20 -4 -20 -5 0 -9 9 -9 20
0 11 2 20 4 20 2 0 6 -9 9 -20z m-1464 -34 c-9 -8 -10 -7 -5 7 3 10 7 24 7 30
1 7 3 4 6 -7 3 -10 -1 -23 -8 -30z m428 38 c-3 -3 -12 -4 -19 -1 -8 3 -5 6 6
6 11 1 17 -2 13 -5z m306 -20 c-6 -16 -13 -17 -33 -4 -13 9 -13 11 -1 19 19
12 41 3 34 -15z m1377 11 c-6 -8 -8 -20 -4 -27 5 -10 4 -10 -6 -1 -11 10 -11
15 0 28 7 8 15 15 17 15 3 0 0 -7 -7 -15z m-3915 -5 c3 -5 -1 -10 -9 -10 -9 0
-16 5 -16 10 0 6 4 10 9 10 6 0 13 -4 16 -10z m2395 0 c0 -5 -2 -10 -4 -10 -3
0 -8 5 -11 10 -3 6 -1 10 4 10 6 0 11 -4 11 -10z m1622 1 c7 11 8 9 6 -6 -4
-24 -22 -23 -25 2 -2 11 0 13 3 4 5 -11 8 -11 16 0z m1298 -12 c0 -5 -4 -9
-10 -9 -5 0 -10 7 -10 16 0 8 5 12 10 9 6 -3 10 -10 10 -16z m-5585 1 c3 -5 1
-10 -4 -10 -6 0 -11 5 -11 10 0 6 2 10 4 10 3 0 8 -4 11 -10z m1016 -17 c-12
-20 -14 -14 -5 12 4 9 9 14 11 11 3 -2 0 -13 -6 -23z m1979 -21 c0 -7 4 -11 9
-7 5 3 13 0 17 -6 4 -8 3 -9 -4 -5 -7 4 -12 3 -12 -2 0 -17 -30 -9 -52 15 -12
13 -19 23 -15 23 3 0 16 -10 28 -22 l21 -23 -7 25 c-4 14 -10 32 -13 40 -3 9
2 6 11 -5 9 -11 17 -26 17 -33z m2423 41 c3 -5 -6 -9 -19 -9 -13 -1 -21 2 -18
7 6 11 31 12 37 2z m-2085 -24 c10 -13 10 -18 0 -22 -8 -3 -14 5 -14 20 -1 13
-1 23 0 21 1 -2 7 -10 14 -19z m2002 7 c0 -2 -9 -6 -20 -9 -11 -3 -20 -1 -20
4 0 5 9 9 20 9 11 0 20 -2 20 -4z m125 -6 c3 -5 1 -10 -4 -10 -6 0 -11 5 -11
10 0 6 2 10 4 10 3 0 8 -4 11 -10z m-3595 -15 c0 -8 -4 -15 -10 -15 -5 0 -7 7
-4 15 4 8 8 15 10 15 2 0 4 -7 4 -15z m660 7 c0 -5 -13 -7 -30 -4 -16 2 -30 6
-30 8 0 2 14 4 30 4 17 0 30 -4 30 -8z m280 -2 c0 -5 -4 -10 -10 -10 -5 0 -10
5 -10 10 0 6 5 10 10 10 6 0 10 -4 10 -10z m44 -14 c-3 -9 -10 -16 -15 -16 -5
0 -4 9 3 20 14 22 21 20 12 -4z m1243 2 c-3 -8 -6 -5 -6 6 -1 11 2 17 5 13 3
-3 4 -12 1 -19z m-3826 2 c10 -6 19 -15 19 -21 0 -6 -4 -7 -10 -4 -14 9 -12
-8 3 -24 10 -11 10 -13 0 -7 -8 4 -13 1 -13 -8 0 -25 -20 -19 -21 7 -1 12 -1
25 0 30 0 4 -6 7 -14 7 -26 0 -16 22 13 29 2 1 12 -4 23 -9z m849 -4 c0 -7 -7
-19 -15 -26 -16 -13 -20 -3 -9 24 8 20 24 21 24 2z m958 -42 l-3 -39 -5 47
c-3 26 -1 43 3 39 5 -5 7 -26 5 -47z m1811 5 c-13 -25 -14 -24 -14 16 0 30 2
33 12 19 9 -12 9 -22 2 -35z m1221 14 c0 -1 -11 2 -25 9 -13 6 -22 15 -19 19
4 7 44 -19 44 -28z m245 7 c-3 -4 -15 -6 -27 -2 -12 3 -17 7 -10 10 7 2 9 8 6
14 -4 6 3 5 15 -2 12 -6 19 -15 16 -20z m105 13 c0 -3 -7 -3 -15 1 -10 3 -15
-1 -15 -11 0 -9 -3 -14 -6 -10 -12 12 5 37 21 31 8 -3 15 -8 15 -11z m-5428
-45 c-5 -5 -9 5 -10 24 0 31 1 31 9 9 6 -14 6 -28 1 -33z m2178 48 c0 -3 -4
-8 -10 -11 -5 -3 -10 -1 -10 4 0 6 5 11 10 11 6 0 10 -2 10 -4z m87 -58 c-2
-13 -4 -3 -4 22 0 25 2 35 4 23 2 -13 2 -33 0 -45z m181 49 c-6 -7 -21 -12
-32 -11 -33 4 -33 6 -1 14 45 11 47 11 33 -3z m322 -9 c0 -6 -6 -5 -15 2 -8 7
-15 14 -15 16 0 2 7 1 15 -2 8 -4 15 -11 15 -16z m2685 1 c-10 -15 -25 -10
-19 6 4 8 10 12 15 9 5 -3 7 -10 4 -15z m-4655 -15 c0 -8 -4 -14 -10 -14 -5 0
-10 9 -10 21 0 11 5 17 10 14 6 -3 10 -13 10 -21z m1144 5 c-3 -5 -10 -7 -15
-3 -5 3 -7 10 -3 15 3 5 10 7 15 3 5 -3 7 -10 3 -15z m556 -12 c0 -4 -6 -2
-14 5 -8 7 -12 17 -9 22 5 8 23 -12 23 -27z m1880 23 c0 -5 -2 -10 -4 -10 -3
0 -8 5 -11 10 -3 6 -1 10 4 10 6 0 11 -4 11 -10z m-3258 -44 c6 4 8 2 5 -3
-12 -19 19 -34 59 -28 22 3 53 2 69 -3 23 -7 11 -9 -49 -8 -54 1 -81 5 -84 14
-2 6 -9 12 -16 12 -9 0 -11 10 -7 33 5 32 6 32 9 4 2 -16 8 -25 14 -21z m2098
35 c0 -6 -4 -13 -10 -16 -5 -3 -10 1 -10 9 0 9 5 16 10 16 6 0 10 -4 10 -9z
m109 -21 c6 -18 6 -30 0 -30 -5 0 -9 9 -9 21 0 15 -5 19 -15 15 -15 -5 -20 5
-8 17 12 13 21 7 32 -23z m101 15 c4 3 7 -3 6 -13 -1 -19 -24 -37 -34 -27 -4
3 -1 10 6 14 7 4 11 14 9 22 -2 8 -2 11 0 6 3 -4 8 -5 13 -2z m98 -2 c-2 -12
3 -17 12 -15 10 1 9 -2 -4 -13 -24 -18 -30 -13 -22 20 7 28 18 35 14 8z m1532
-3 c0 -5 -2 -10 -4 -10 -3 0 -8 5 -11 10 -3 6 -1 10 4 10 6 0 11 -4 11 -10z
m-5170 -30 c0 -35 -15 -40 -25 -9 -5 14 -2 25 6 30 19 12 19 12 19 -21z m610
15 c0 -9 -6 -12 -15 -9 -8 4 -17 -1 -21 -10 -3 -9 -11 -16 -17 -16 -6 0 0 11
13 25 27 28 40 32 40 10z m107 -7 c-3 -8 -6 -5 -6 6 -1 11 2 17 5 13 3 -3 4
-12 1 -19z m294 7 c7 18 8 18 8 2 1 -20 -50 -77 -70 -77 -6 0 -22 11 -35 25
-16 18 -19 25 -9 25 8 0 15 -4 15 -10 0 -5 14 -10 30 -10 26 0 31 4 37 33 5
24 8 27 11 12 l5 -20 8 20z m3486 -22 c-3 -3 -10 -2 -16 2 -7 4 -7 10 2 20 10
11 13 11 15 -2 2 -8 1 -17 -1 -20z m-3167 17 c0 -5 -4 -10 -10 -10 -5 0 -10 5
-10 10 0 6 5 10 10 10 6 0 10 -4 10 -10z m960 -15 c0 -8 -4 -17 -10 -20 -6 -4
-10 5 -10 20 0 15 4 24 10 20 6 -3 10 -12 10 -20z m2309 12 c8 -10 7 -14 -4
-14 -8 0 -12 4 -9 8 2 4 -2 10 -8 12 -8 4 -9 6 -2 6 6 1 17 -5 23 -12z m587
-5 c-9 -15 -48 -23 -43 -9 2 7 11 11 21 9 9 -2 16 3 16 9 0 7 3 10 6 6 3 -3 3
-10 0 -15z m-5296 -7 c0 -8 -4 -15 -10 -15 -5 0 -10 7 -10 15 0 8 5 15 10 15
6 0 10 -7 10 -15z m1300 5 c0 -5 -5 -10 -11 -10 -5 0 -7 5 -4 10 3 6 8 10 11
10 2 0 4 -4 4 -10z m893 -33 l32 -4 -30 -1 c-41 -2 -60 11 -50 34 8 18 9 17
12 -3 3 -16 13 -23 36 -26z m1337 33 c0 -5 -5 -10 -11 -10 -5 0 -7 5 -4 10 3
6 8 10 11 10 2 0 4 -4 4 -10z m1454 2 c3 -5 -1 -9 -9 -9 -8 0 -12 4 -9 9 3 4
7 8 9 8 2 0 6 -4 9 -8z m753 -12 c1 -14 -4 -20 -18 -20 -10 0 -19 4 -19 10 0
5 7 7 15 3 9 -3 15 -2 14 3 -2 11 0 24 4 24 1 0 3 -9 4 -20z m-2274 -15 c36
-7 54 -35 21 -35 -8 0 -13 4 -10 9 3 5 -9 12 -28 15 -19 4 -37 14 -40 23 -5
12 -3 13 6 5 7 -5 30 -13 51 -17z m-3203 0 c30 -8 70 -12 88 -9 18 4 32 2 32
-4 0 -5 -17 -12 -37 -16 -54 -8 -75 -7 -68 3 3 6 -15 13 -40 16 -25 4 -45 11
-45 16 0 12 5 11 70 -6z m515 -13 c-7 -7 -85 10 -80 18 2 4 23 3 44 -3 22 -6
39 -13 36 -15z m3905 13 c19 4 36 2 45 -5 12 -10 15 -10 15 0 0 9 4 9 13 2 6
-5 35 -13 62 -17 39 -6 46 -9 30 -16 -11 -4 -27 -8 -35 -8 -13 -1 -13 0 0 10
11 8 7 9 -17 5 -19 -3 -33 -1 -33 4 0 6 -4 10 -10 10 -5 0 -10 -6 -10 -14 0
-8 -5 -18 -12 -22 -7 -4 -8 -3 -4 5 12 20 -15 43 -42 36 -28 -7 -62 2 -62 17
0 7 5 6 15 -2 9 -7 26 -9 45 -5z m-3711 -7 c28 -6 51 -16 51 -21 0 -5 -10 -7
-22 -4 -13 4 -42 9 -65 13 -24 3 -40 10 -37 15 7 12 12 11 73 -3z m256 2 c3
-5 -4 -10 -15 -10 -16 0 -20 -5 -16 -15 3 -8 1 -15 -4 -15 -6 0 -10 5 -10 11
0 8 -13 9 -40 5 -56 -9 -50 10 8 22 65 13 70 13 77 2z m35 0 c0 -5 -5 -10 -11
-10 -5 0 -7 5 -4 10 3 6 8 10 11 10 2 0 4 -4 4 -10z m400 0 c0 -5 -9 -10 -19
-10 -11 0 -27 -3 -36 -6 -13 -5 -14 -8 -3 -15 10 -7 9 -9 -4 -9 -11 0 -18 8
-18 19 0 15 8 21 33 24 17 2 35 5 40 5 4 1 7 -2 7 -8z m211 -18 c-27 -25 -52
-26 -58 -2 -4 12 -3 13 5 1 5 -7 15 -10 21 -6 9 5 8 10 -4 19 -13 9 -9 11 23
11 l38 0 -25 -23z m169 18 c0 -5 -9 -10 -20 -10 -11 0 -20 5 -20 10 0 6 9 10
20 10 11 0 20 -4 20 -10z m1110 -16 c0 -8 -6 -14 -12 -15 -7 0 -4 -4 6 -8 18
-7 18 -8 3 -14 -9 -3 -17 -3 -18 1 0 4 -2 19 -4 34 -3 20 0 25 11 21 8 -3 14
-11 14 -19z m148 17 c10 -6 8 -10 -9 -14 -26 -7 -42 0 -34 14 8 11 26 11 43 0z
m426 -12 c-8 -13 -40 -11 -52 4 -9 10 -4 12 23 9 19 -2 32 -8 29 -13z m336 11
c0 -5 -9 -10 -19 -10 -11 0 -27 -3 -36 -6 -13 -5 -14 -8 -3 -15 10 -7 9 -9 -4
-9 -11 0 -18 8 -18 19 0 15 8 21 33 24 17 2 35 5 40 5 4 1 7 -2 7 -8z m470 0
c-8 -5 -22 -9 -30 -9 -10 0 -8 3 5 9 27 12 43 12 25 0z m400 -5 c-14 -17 -46
-20 -55 -6 -3 5 9 12 27 14 18 2 35 5 37 5 2 1 -2 -5 -9 -13z m-4862 -7 c15
-15 16 -28 2 -28 -5 0 -10 6 -10 14 0 8 -8 17 -17 19 -14 4 -14 5 -2 6 8 0 20
-4 27 -11z m612 3 c0 -5 -7 -12 -16 -15 -14 -5 -15 -4 -4 9 14 17 20 19 20 6z
m1780 -1 c0 -13 -20 -13 -40 0 -12 8 -9 10 13 10 15 0 27 -4 27 -10z m900 -4
c-7 -7 -13 -7 -20 0 -6 6 -3 10 10 10 13 0 16 -4 10 -10z m490 -2 c0 -2 -7 -4
-15 -4 -8 0 -15 4 -15 10 0 5 7 7 15 4 8 -4 15 -8 15 -10z m46 4 c4 -6 2 -14
-5 -16 -9 -3 -10 -7 -2 -11 6 -4 -5 -7 -24 -7 -43 0 -44 4 -3 18 28 10 30 12
12 19 -16 6 -16 8 -2 8 9 1 20 -4 24 -11z m520 -6 c-10 -2 -22 0 -28 6 -6 6 0
7 19 4 21 -5 23 -7 9 -10z m824 8 c0 -5 -9 -10 -20 -10 -11 0 -20 5 -20 10 0
6 9 10 20 10 11 0 20 -4 20 -10z m135 0 c-27 -12 -35 -12 -35 0 0 6 12 10 28
9 24 0 25 -1 7 -9z m298 -7 c-20 -15 -53 -17 -53 -4 0 12 19 18 48 17 20 -1
21 -2 5 -13z m-5503 -8 c11 -13 8 -15 -19 -15 -30 0 -39 9 -24 23 11 11 30 8
43 -8z m410 -10 c0 -14 -4 -25 -9 -25 -5 0 -8 8 -6 18 2 9 4 20 4 25 2 19 11
4 11 -18z m35 15 c3 -5 -1 -10 -9 -10 -9 0 -16 5 -16 10 0 6 4 10 9 10 6 0 13
-4 16 -10z m2800 0 c3 -5 16 -10 28 -11 16 -1 13 -4 -12 -10 -18 -6 -36 -8
-39 -5 -3 3 2 6 12 6 10 0 14 5 11 11 -4 6 -14 8 -22 5 -8 -3 -11 -1 -8 4 8
13 22 13 30 0z m755 -5 c0 -8 -7 -15 -15 -15 -8 0 -15 7 -15 15 0 8 7 15 15
15 8 0 15 -7 15 -15z m903 8 c-7 -2 -19 -2 -25 0 -7 3 -2 5 12 5 14 0 19 -2
13 -5z m662 -3 c3 -5 -3 -10 -14 -10 -10 0 -28 -3 -38 -6 -10 -3 -7 2 7 10 30
18 37 19 45 6z m-5008 -6 c-3 -3 -12 -4 -19 -1 -8 3 -5 6 6 6 11 1 17 -2 13
-5z m513 -4 c0 -5 -4 -10 -10 -10 -5 0 -10 5 -10 10 0 6 5 10 10 10 6 0 10 -4
10 -10z m125 0 c3 -5 -1 -10 -9 -10 -9 0 -16 5 -16 10 0 6 4 10 9 10 6 0 13
-4 16 -10z m78 3 c-7 -2 -19 -2 -25 0 -7 3 -2 5 12 5 14 0 19 -2 13 -5z m597
-3 c0 -5 -9 -10 -20 -10 -11 0 -20 5 -20 10 0 6 9 10 20 10 11 0 20 -4 20 -10z
m1160 -6 c0 -2 -7 -4 -15 -4 -8 0 -15 4 -15 10 0 5 7 7 15 4 8 -4 15 -8 15
-10z m890 0 c0 -2 -7 -4 -15 -4 -8 0 -15 4 -15 10 0 5 7 7 15 4 8 -4 15 -8 15
-10z m240 0 c0 -2 -15 -4 -32 -3 -27 0 -29 2 -13 8 18 8 45 4 45 -5z m310 6
c0 -5 -4 -10 -10 -10 -5 0 -10 5 -10 10 0 6 5 10 10 10 6 0 10 -4 10 -10z m70
2 c0 -5 -7 -9 -15 -9 -8 0 -15 4 -15 9 0 4 7 8 15 8 8 0 15 -4 15 -8z m-4457
-9 c-7 -2 -19 -2 -25 0 -7 3 -2 5 12 5 14 0 19 -2 13 -5z m520 0 c-7 -2 -19
-2 -25 0 -7 3 -2 5 12 5 14 0 19 -2 13 -5z m120 0 c-7 -2 -19 -2 -25 0 -7 3
-2 5 12 5 14 0 19 -2 13 -5z m600 0 c-7 -2 -19 -2 -25 0 -7 3 -2 5 12 5 14 0
19 -2 13 -5z m1863 -11 c-5 -9 -25 -9 -46 -2 -3 1 6 5 20 9 28 9 35 7 26 -7z
m1876 6 c-9 -9 -15 -9 -24 0 -9 9 -7 12 12 12 19 0 21 -3 12 -12z m133 2 c-3
-5 -10 -10 -16 -10 -5 0 -9 5 -9 10 0 6 7 10 16 10 8 0 12 -4 9 -10z m-2128
-6 c-3 -3 -12 -4 -19 -1 -8 3 -5 6 6 6 11 1 17 -2 13 -5z m38 -4 c3 -6 -1 -7
-9 -4 -18 7 -21 14 -7 14 6 0 13 -4 16 -10z m1238 -7 c-7 -2 -19 -2 -25 0 -7
3 -2 5 12 5 14 0 19 -2 13 -5z m344 1 c-3 -3 -12 -4 -19 -1 -8 3 -5 6 6 6 11
1 17 -2 13 -5z m-4284 -21 c-7 -2 -19 -2 -25 0 -7 3 -2 5 12 5 14 0 19 -2 13
-5z m120 0 c-7 -2 -21 -2 -30 0 -10 3 -4 5 12 5 17 0 24 -2 18 -5z m1050 0
c-7 -2 -21 -2 -30 0 -10 3 -4 5 12 5 17 0 24 -2 18 -5z m65 0 c-10 -2 -26 -2
-35 0 -10 3 -2 5 17 5 19 0 27 -2 18 -5z m1415 0 c-24 -2 -62 -2 -85 0 -24 2
-5 4 42 4 47 0 66 -2 43 -4z m640 0 c-24 -2 -62 -2 -85 0 -24 2 -5 4 42 4 47
0 66 -2 43 -4z m650 0 c-23 -2 -64 -2 -90 0 -26 2 -7 3 42 3 50 0 71 -1 48 -3z
m310 0 c-24 -2 -62 -2 -85 0 -24 2 -5 4 42 4 47 0 66 -2 43 -4z m800 0 c-24
-2 -62 -2 -85 0 -24 2 -5 4 42 4 47 0 66 -2 43 -4z m-5020 -20 c-13 -2 -35 -2
-50 0 -16 2 -5 4 22 4 28 0 40 -2 28 -4z m85 0 c-10 -2 -28 -2 -40 0 -13 2 -5
4 17 4 22 1 32 -1 23 -4z m1099 0 c-20 -2 -52 -2 -70 0 -17 2 0 4 38 4 39 0
53 -2 32 -4z m1436 0 c-24 -2 -62 -2 -85 0 -24 2 -5 4 42 4 47 0 66 -2 43 -4z
m640 0 c-24 -2 -62 -2 -85 0 -24 2 -5 4 42 4 47 0 66 -2 43 -4z m640 0 c-24
-2 -62 -2 -85 0 -24 2 -5 4 42 4 47 0 66 -2 43 -4z m320 0 c-23 -2 -64 -2 -90
0 -26 2 -7 3 42 3 50 0 71 -1 48 -3z m800 0 c-24 -2 -62 -2 -85 0 -24 2 -5 4
42 4 47 0 66 -2 43 -4z m-5320 -30 c-46 -2 -120 -2 -165 0 -46 1 -9 3 82 3 91
0 128 -2 83 -3z m270 0 c-7 -2 -19 -2 -25 0 -7 3 -2 5 12 5 14 0 19 -2 13 -5z
m120 0 c-7 -2 -19 -2 -25 0 -7 3 -2 5 12 5 14 0 19 -2 13 -5z m770 0 c-112 -2
-294 -2 -405 0 -112 1 -21 2 202 2 223 0 314 -1 203 -2z m234 1 c-3 -3 -12 -4
-19 -1 -8 3 -5 6 6 6 11 1 17 -2 13 -5z m491 -1 c-64 -2 -172 -2 -240 0 -68 1
-15 3 117 3 132 0 187 -2 123 -3z m750 0 c-86 -2 -230 -2 -320 0 -90 1 -19 3
157 3 176 0 249 -2 163 -3z m255 0 c-7 -2 -19 -2 -25 0 -7 3 -2 5 12 5 14 0
19 -2 13 -5z m450 0 c-67 -2 -179 -2 -250 0 -70 1 -15 3 122 3 138 0 195 -2
128 -3z m665 0 c-75 -2 -201 -2 -280 0 -79 1 -17 3 137 3 154 0 218 -2 143 -3z
m185 0 c-7 -2 -19 -2 -25 0 -7 3 -2 5 12 5 14 0 19 -2 13 -5z m234 1 c-3 -3
-12 -4 -19 -1 -8 3 -5 6 6 6 11 1 17 -2 13 -5z m316 -1 c-35 -2 -91 -2 -125 0
-35 2 -7 3 62 3 69 0 97 -1 63 -3z m445 0 c-26 -2 -71 -2 -100 0 -29 2 -8 3
47 3 55 0 79 -1 53 -3z m280 0 c-27 -2 -69 -2 -95 0 -27 2 -5 3 47 3 52 0 74
-1 48 -3z"/>
<path d="M1627 1953 c3 -6 11 -9 19 -6 20 7 17 19 -5 19 -11 0 -17 -6 -14 -13z"/>
<path d="M1563 1823 c2 -18 0 -30 -4 -28 -4 3 -9 -9 -11 -25 -5 -33 5 -39 22
-12 11 16 11 16 6 0 -3 -10 -1 -18 5 -18 11 0 3 60 -13 95 -6 16 -8 13 -5 -12z"/>
<path d="M2802 1650 c0 -14 2 -19 5 -12 2 6 2 18 0 25 -3 6 -5 1 -5 -13z"/>
<path d="M2003 1873 c-14 -20 -18 -48 -18 -109 0 -99 15 -124 77 -124 29 0 38
-4 39 -17 1 -10 12 25 25 77 13 52 21 100 19 107 -2 7 0 15 5 18 6 4 10 13 10
22 0 13 -3 13 -15 3 -8 -7 -15 -21 -15 -32 0 -10 -4 -17 -9 -14 -11 7 -2 46
10 46 20 0 7 31 -17 40 -49 19 -92 12 -111 -17z m83 -16 c8 3 14 0 14 -5 0
-15 -18 -24 -25 -13 -3 6 -12 8 -20 4 -10 -3 -15 1 -15 12 0 9 -4 13 -10 10
-5 -3 -7 0 -4 9 5 13 9 12 26 -4 11 -10 26 -16 34 -13z m14 22 c0 -14 -29 -18
-39 -5 -8 9 -4 12 14 12 14 0 25 -3 25 -7z m-20 -95 c0 -8 -4 -12 -10 -9 -5 3
-10 13 -10 21 0 8 5 12 10 9 6 -3 10 -13 10 -21z m17 4 c-3 -8 -6 -5 -6 6 -1
11 2 17 5 13 3 -3 4 -12 1 -19z m28 -40 c-2 -10 -11 -28 -19 -40 -10 -15 -12
-26 -6 -39 9 -15 5 -17 -25 -15 -39 4 -53 12 -40 24 4 4 10 1 12 -5 3 -7 9
-13 14 -13 6 0 7 4 4 10 -4 6 1 7 12 3 10 -3 15 -3 11 2 -4 4 -3 16 2 26 7 12
7 20 0 24 -5 3 -10 1 -10 -6 0 -7 -3 -10 -6 -6 -7 7 12 42 23 42 4 0 7 3 6 6
-1 3 4 6 12 6 7 0 12 -8 10 -19z"/>
<path d="M2203 1833 c2 -18 -1 -33 -6 -33 -5 0 -7 -11 -5 -25 3 -13 0 -26 -6
-29 -6 -2 1 -5 17 -5 27 -1 38 21 17 34 -5 3 -7 11 -5 18 3 7 0 26 -5 42 l-10
30 3 -32z"/>
<path d="M2336 1951 c-4 -5 4 -15 16 -22 22 -12 22 -11 8 7 -8 10 -15 20 -16
22 -1 2 -5 -1 -8 -7z"/>
<path d="M3660 1949 c0 -5 5 -7 10 -4 6 3 10 8 10 11 0 2 -4 4 -10 4 -5 0 -10
-5 -10 -11z"/>
<path d="M3960 1980 c0 -5 5 -10 11 -10 5 0 7 5 4 10 -3 6 -8 10 -11 10 -2 0
-4 -4 -4 -10z"/>
<path d="M4665 1860 c-3 -6 1 -7 9 -4 18 7 21 14 7 14 -6 0 -13 -4 -16 -10z"/>
<path d="M4823 1802 c-10 -63 -7 -71 16 -49 11 10 13 10 7 0 -4 -7 -2 -13 4
-13 7 0 9 13 4 38 -17 87 -20 90 -31 24z"/>
<path d="M5288 1878 c-17 -31 -16 -186 0 -216 17 -30 52 -26 69 8 7 14 13 60
13 104 0 67 -2 77 -16 72 -9 -3 -12 -2 -9 5 4 6 -2 13 -14 16 -12 3 -21 9 -21
14 0 13 23 6 37 -11 7 -8 13 -10 13 -4 1 36 -53 45 -72 12z m32 -28 c-8 -5
-19 -10 -25 -10 -5 0 -3 5 5 10 8 5 20 10 25 10 6 0 3 -5 -5 -10z m12 -82 c-9
-9 -15 -9 -24 0 -9 9 -7 12 12 12 19 0 21 -3 12 -12z"/>
<path d="M5905 1879 c-10 -31 -2 -31 35 -4 l34 25 -31 0 c-23 0 -33 -6 -38
-21z"/>
<path d="M5430 1620 c0 -5 5 -10 10 -10 6 0 10 5 10 10 0 6 -4 10 -10 10 -5 0
-10 -4 -10 -10z"/>
<path d="M3402 1953 c-16 -14 -16 -14 1 -9 10 3 25 6 33 6 8 0 14 4 14 8 0 14
-29 10 -48 -5z"/>
<path d="M3315 1880 c-13 -25 -13 -30 -1 -30 8 0 19 14 25 30 6 17 6 30 1 30
-5 0 -16 -13 -25 -30z"/>
<path d="M829 1873 c-17 -46 -21 -136 -7 -182 11 -37 18 -45 41 -48 27 -4 31
2 28 42 -2 17 0 17 8 5 8 -11 11 10 11 73 l0 89 -30 -7 c-41 -9 -59 4 -29 21
17 9 28 9 36 2 7 -6 13 -7 13 -2 -1 38 -57 43 -71 7z m21 -85 c0 -38 -5 -34
-13 10 -4 21 -3 31 3 27 6 -3 10 -20 10 -37z m38 16 c0 -18 -3 -22 -9 -13 -11
18 -11 39 0 39 5 0 9 -12 9 -26z m-3 -91 c-7 -8 -11 -7 -14 5 -3 14 -5 14 -12
-3 -7 -18 -8 -18 -8 -2 -1 10 -5 15 -11 12 -5 -3 -10 -1 -10 4 0 6 8 11 19 11
14 0 17 6 14 28 -4 25 -3 25 14 -8 13 -24 15 -39 8 -47z m0 -53 c-3 -5 -11
-10 -16 -10 -6 0 -7 5 -4 10 3 6 11 10 16 10 6 0 7 -4 4 -10z"/>
<path d="M1040 1839 c0 -58 1 -60 23 -54 61 19 63 115 2 115 -24 0 -25 -3 -25
-61z m38 44 c-10 -2 -18 -8 -18 -13 0 -5 6 -7 14 -4 8 3 16 1 19 -3 8 -12 -10
-39 -20 -30 -4 5 -1 13 7 18 13 9 13 10 0 6 -8 -2 -14 -11 -14 -20 1 -9 -2
-14 -7 -12 -4 3 -6 18 -5 33 5 34 3 32 24 31 16 -1 16 -2 0 -6z m12 -75 c0 -6
-3 -8 -7 -5 -3 4 -12 2 -20 -4 -8 -8 -13 -8 -13 -1 0 10 15 19 33 21 4 1 7 -4
7 -11z"/>
<path d="M858 1853 c7 -3 16 -2 19 1 4 3 -2 6 -13 5 -11 0 -14 -3 -6 -6z"/>
<path d="M3565 1890 c-3 -5 -3 -10 2 -10 4 0 1 -5 -7 -10 -12 -7 -15 -30 -15
-99 0 -78 3 -92 20 -106 11 -9 14 -13 6 -9 -9 5 -12 3 -7 -4 9 -15 52 -8 49 7
-2 6 2 11 7 11 15 0 12 29 -4 46 -11 11 -16 11 -20 1 -3 -6 -3 -1 0 12 4 17 3
21 -6 16 -6 -4 -10 -18 -7 -31 2 -13 -1 -22 -7 -21 -19 4 -25 20 -11 33 7 8
15 19 18 26 3 9 12 6 31 -11 l26 -24 0 51 c0 28 -4 53 -10 57 -5 3 -7 12 -4
20 13 34 -42 75 -61 45z m30 -8 c6 -4 -1 -18 -17 -34 -16 -15 -28 -23 -28 -19
0 5 7 14 15 21 9 7 14 19 11 27 -6 14 3 17 19 5z m5 -79 c0 -30 -9 -27 -15 6
-2 11 0 21 6 21 5 0 9 -12 9 -27z m23 -3 c3 -11 1 -18 -4 -14 -5 3 -9 12 -9
20 0 20 7 17 13 -6z"/>
<path d="M1666 1755 c4 -8 8 -15 10 -15 2 0 4 7 4 15 0 8 -4 15 -10 15 -5 0
-7 -7 -4 -15z"/>
<path d="M0 560 l0 -560 3200 0 3200 0 0 560 0 560 -3200 0 -3200 0 0 -560z"/>
</g>
</svg>
